<svg xmlns="http://www.w3.org/2000/svg" fill="none" viewBox="0 0 60 60" height="60" width="60">
<path stroke-linejoin="round" stroke-linecap="round" stroke-width="1.5" stroke="#313131" d="M23.6289 31.2654C20.8297 32.7738 18.3544 34.2762 16.188 35.65C15.779 35.9091 15.6008 36.3748 15.7577 36.7676L17.5334 41.2069"></path>
<path stroke-linejoin="round" stroke-linecap="round" stroke-width="1.5" stroke="#313131" d="M55.6802 25.9483C55.6802 25.9483 51.489 23.799 44.5117 24.1756"></path>
<path stroke-linejoin="round" stroke-linecap="round" stroke-width="1.5" stroke="#313131" d="M22.1602 31.972C22.1602 31.972 19.7113 30.1568 16.988 30.4777C15.4826 30.6549 13.9367 31.2178 13.1784 31.5559C12.7087 31.7655 12.6418 32.4843 13.0519 32.9186L16.088 35.6894"></path>
<path stroke-linejoin="round" stroke-linecap="round" stroke-width="1.5" stroke="#313131" d="M55.6805 25.9482C55.6805 25.9482 52.365 35.4403 38.8518 40.8464C31.833 43.6537 25.4733 45.152 20.3911 46.1593C19.9163 46.2535 19.4658 46.0388 19.3089 45.647L17.5332 41.2078"></path>
<path stroke-linejoin="round" stroke-linecap="round" stroke-width="1.5" stroke="#313131" d="M27.2525 44.7026C27.2525 44.7026 26.7301 47.7064 24.5383 49.3515C23.3255 50.2616 21.8181 50.9196 21.0355 51.198C20.5506 51.3701 20.0069 50.8964 20.0039 50.2991L20.2914 46.1989"></path>
<path stroke-linejoin="round" stroke-linecap="round" stroke-width="1.5" stroke="#313131" d="M24.8939 38.2629L16.4648 41.6352"></path>
<path stroke-linejoin="round" stroke-linecap="round" stroke-width="1.5" stroke="#313131" d="M32.7661 37.4053C32.2933 37.5946 31.7497 37.6088 31.2395 37.4033C30.1896 36.9801 29.6814 35.7865 30.1046 34.7367L31.5665 31.1073L27.8237 31.9375C27.1201 32.1268 26.3689 31.9294 25.8506 31.4181C25.3322 30.9069 25.1237 30.1587 25.3039 29.4521C25.3758 29.1696 26.5754 22.8149 27.6162 19.7839C27.8004 19.2453 28.2013 18.809 28.7207 18.5771C29.241 18.3473 29.8333 18.3402 30.3567 18.564L36.1596 21.266L41.3582 22.8109C42.4272 23.1834 42.9911 24.3517 42.6186 25.4208C42.246 26.4899 41.0777 27.0538 40.0087 26.6812L34.7453 25.114C34.7018 25.0989 34.6593 25.0827 34.6178 25.0644L30.8315 23.2199C30.4407 24.541 30.0226 26.0525 29.6662 27.3757L33.8261 27.2856C34.9275 27.1884 35.377 27.3231 35.8923 27.9042C36.4087 28.4853 36.5504 29.3093 36.2598 30.0301L33.905 36.2704C33.6874 36.81 33.2662 37.2069 32.7651 37.4073L32.7661 37.4053Z"></path>
<path stroke-linejoin="round" stroke-linecap="round" stroke-width="1.5" stroke="#313131" d="M35.7568 12.0586L37.0951 10.5107C37.7451 9.75848 38.882 9.67648 39.6342 10.3274C40.3864 10.9784 40.4684 12.1143 39.8174 12.8665L35.7031 17.6226"></path>
<path stroke-linejoin="round" stroke-linecap="round" stroke-width="1.5" stroke="#313131" d="M33.8313 13.98C34.5126 15.6849 33.6845 17.6195 31.9797 18.3008C30.2748 18.9832 28.3402 18.154 27.6588 16.4492C26.9765 14.7444 27.8056 12.8097 29.5105 12.1284C31.2153 11.4471 33.15 12.2752 33.8313 13.98Z"></path>
<path fill="#AFE5FD" d="M17.2548 45.6638C17.2548 45.6638 15.7403 47.6582 12.8864 47.2786C13.1354 44.2718 10.1135 43.7474 8.30234 45.6922C8.12619 38.5671 14.6287 38.967 14.6287 38.967"></path>
<path stroke-linejoin="round" stroke-linecap="round" stroke-width="1.5" stroke="#313131" d="M17.2548 45.6638C17.2548 45.6638 15.7403 47.6582 12.8864 47.2786C13.1354 44.2718 10.1135 43.7474 8.30234 45.6922C8.12619 38.5671 14.6287 38.967 14.6287 38.967"></path>
</svg>
