<svg xmlns="http://www.w3.org/2000/svg" fill="none" viewBox="0 0 61 60" height="60" width="61">
<path stroke-linejoin="round" stroke-width="1.65" stroke="black" fill="#AFE5FD" d="M25.8008 30.0802L30.1597 23.3743H35.3568L32.4229 27.9846H37.5362L27.0581 38.0436L30.1597 30.0802H25.8008Z"></path>
<path stroke-width="1.65" stroke="black" d="M23.5239 53.3306C22.9571 52.7639 23.2401 50.355 22.3901 48.7963C21.5401 47.2375 18.7061 47.5209 16.2972 47.3792C13.8883 47.2375 13.038 45.5578 13.038 42.1136C13.038 40.3393 13.1417 36.4776 11.1586 36.4776C9.59987 36.4776 6.51959 36.8933 9.77878 32.0755C13.038 27.2577 13.038 27.116 13.038 25.699C13.038 24.282 11.1222 13.1005 22.3901 8.2975C33.658 3.49451 46.0686 9.21437 47.8977 21.8652C50.0394 36.678 37.7738 34.8086 42.7836 52.3428"></path>
<path stroke-width="1.65" stroke="black" fill="#AFE5FD" d="M30.9404 11.3936C28.5221 11.3936 26.4262 12.7774 25.4014 14.7998L25.3057 14.998L24.9932 15.6719L24.291 15.4326C23.9103 15.303 23.5056 15.2246 23.085 15.207L22.9033 15.2031C20.527 15.2031 18.6006 17.1296 18.6006 19.5059L18.6064 19.7275C18.722 22.0008 20.6015 23.8086 22.9033 23.8086H38.5381C40.6716 23.8086 42.4011 22.0789 42.4014 19.9453L42.3965 19.7461C42.2928 17.7049 40.605 16.082 38.5381 16.082C38.2721 16.082 38.0142 16.1081 37.7666 16.1582L37.0537 16.3027L36.8213 15.6133C36.018 13.2354 33.8153 11.5044 31.1953 11.3984L30.9404 11.3936Z"></path>
</svg>
