<svg xmlns="http://www.w3.org/2000/svg" fill="none" viewBox="0 0 60 60" height="60" width="60">
<path fill="#AFE5FD" d="M24.3466 52.7935C19.5068 39.6578 23.6262 30.5407 26.2909 27.6241H34.0692C29.4079 34.5202 29.5314 42.5093 30.7272 48.027H38.2444C36.633 50.7748 34.6444 52.6516 32.2328 52.7935H24.3466Z"></path>
<path fill="#AFE5FD" d="M32.2328 15.0935C34.4796 18.6367 35.4014 23.0512 35.5815 24.8156C35.5815 26.9358 35.3278 29.4176 34.8236 32.0384L38.5 33.1252L43.4506 30.4757C43.5945 29.4516 43.7076 28.4914 43.7912 27.6241C43.9641 20.7968 41.1267 16.4257 39.6864 15.0935H32.2328Z"></path>
<path stroke-linejoin="round" stroke-linecap="round" stroke-width="1.65" stroke="#2A2A2A" d="M52.4481 32.4376C50.1271 29.8021 42.3095 29.7196 39 32.9183"></path>
<path stroke-linejoin="round" stroke-linecap="round" stroke-width="1.65" stroke="#2A2A2A" d="M23.3039 32.7146C21.0795 33.4118 20.2122 34.149 19.5781 34.6838"></path>
<path stroke-linejoin="round" stroke-linecap="round" stroke-width="1.65" stroke="#2A2A2A" d="M40.6333 34.0717C39.8072 33.5446 37.7246 32.4105 34.4512 31.9285"></path>
<path stroke-linejoin="round" stroke-linecap="round" stroke-width="1.65" stroke="#2A2A2A" d="M44.7773 46.355C47.8072 48.7765 50.8177 50.4261 52.4493 51.1182"></path>
<path stroke-linejoin="round" stroke-linecap="round" stroke-width="1.65" stroke="#2A2A2A" d="M33.3027 48.3624C36.9899 48.3779 39.9231 48.0196 44.7778 46.3533"></path>
<path stroke-linejoin="round" stroke-linecap="round" stroke-width="1.65" stroke="#2A2A2A" d="M19.5788 34.6836C19.5788 34.6836 19.6961 30.878 17.5812 22.0397C17.3093 20.903 17.2603 19.2173 17.6702 18.1219L18.281 16.4903L21.6318 17.7043C22.7298 18.0884 24.3459 17.81 25.9311 14.458C27.5175 11.1059 26.6992 9.94733 25.7339 9.37641L22.1318 7.23193C20.9049 6.50507 19.3623 6.58497 18.2166 7.43426L12.4623 12.0763C11.6182 12.6576 11.006 13.5146 10.7315 14.5018C8.75456 22.715 6.55724 31.3007 8.03415 39.4469C8.60378 42.5901 11.8489 44.0709 13.1698 44.2088C13.8786 44.2836 17.0593 46.6317 22.6215 47.8624"></path>
<path stroke-linejoin="round" stroke-linecap="round" stroke-width="1.65" stroke="#2A2A2A" d="M18.282 16.4903L16.7793 15.9478"></path>
<path stroke-linejoin="round" stroke-linecap="round" stroke-width="1.65" stroke="#2A2A2A" d="M34.1372 27.594H26.165C26.165 27.594 21.9727 31.9139 21.9727 40.8501C21.9727 49.7863 24.4947 52.6834 24.4947 52.6834H32.467C32.467 52.6834 29.9449 49.7876 29.9449 40.8501C29.9449 31.9126 34.1372 27.594 34.1372 27.594Z"></path>
<path stroke-linejoin="round" stroke-linecap="round" stroke-width="1.65" stroke="#2A2A2A" d="M34.1367 27.594C35.3262 27.594 35.8984 28.0734 36.2967 28.7951"></path>
<path stroke-linejoin="round" stroke-linecap="round" stroke-width="1.65" stroke="#2A2A2A" d="M32.4688 52.6837C34.6003 52.6837 35.8646 51.8409 36.5979 50.5405"></path>
<path stroke-linejoin="round" stroke-linecap="round" stroke-width="1.65" stroke="#2A2A2A" d="M30.7233 32.9736H28.6406"></path>
<path stroke-linejoin="round" stroke-linecap="round" stroke-width="1.65" stroke="#2A2A2A" d="M29.6842 37.9895H27.6016"></path>
<path stroke-linejoin="round" stroke-linecap="round" stroke-width="1.65" stroke="#2A2A2A" d="M29.6842 43.0774H27.6016"></path>
<path stroke-linejoin="round" stroke-linecap="round" stroke-width="1.65" stroke="#2A2A2A" d="M30.3274 48.0688H28.2461"></path>
<path stroke-linejoin="round" stroke-linecap="round" stroke-width="1.65" stroke="#2A2A2A" d="M35.736 24.8789C34.9099 18.1465 31.7383 14.8782 31.7383 14.8782H39.7105C39.7105 14.8782 43.6489 18.9365 43.8912 27.3237"></path>
<path stroke-linejoin="round" stroke-linecap="round" stroke-width="1.65" stroke="#2A2A2A" d="M34.4004 19.4678H42.3726"></path>
<path stroke-linejoin="round" stroke-linecap="round" stroke-width="1.65" stroke="#2A2A2A" d="M43.5372 23.7166H41.4727"></path>
</svg>
