<svg xmlns="http://www.w3.org/2000/svg" fill="none" viewBox="0 0 60 60" height="60" width="60">
<path fill="#AFE5FD" d="M23.5 31L33 17L31.5 28.5L36.5 29L27 43.5L28.5 32L23.5 31Z"></path>
<path stroke-width="0.5" stroke="#161A30" fill="#161A30" d="M33.4525 15.0338C33.1712 14.9261 32.8528 15.0291 32.687 15.281L22.2292 31.1443C22.0989 31.3418 22.0879 31.5949 22.2 31.8031C22.3121 32.0113 22.5297 32.1413 22.7661 32.1413H27.7101L25.9576 44.273C25.9146 44.571 26.0842 44.8593 26.3655 44.966C26.4402 44.9946 26.5175 45.0081 26.5938 45.0081C26.8051 45.0081 27.0092 44.9039 27.1311 44.7189L37.5889 28.8556C37.7192 28.658 37.7302 28.405 37.6181 28.1968C37.506 27.9886 37.2884 27.8586 37.0519 27.8586H32.108L33.8604 15.7268C33.9034 15.4289 33.7339 15.1406 33.4525 15.0338ZM30.7289 28.4097C30.7022 28.5943 30.7571 28.7815 30.8793 28.9228C31.0014 29.0637 31.1788 29.1448 31.3654 29.1448H35.8578L27.6422 41.6068L29.0892 31.5902C29.1159 31.4056 29.0609 31.2184 28.9388 31.0771C28.8166 30.9361 28.6392 30.8551 28.4527 30.8551H23.9603L32.1758 18.393L30.7289 28.4097Z"></path>
<path stroke-width="0.5" stroke="#161A30" fill="#161A30" d="M51.7057 31.8582C51.3577 31.8195 51.0343 32.0714 50.9941 32.4246C49.7755 43.1405 40.7112 51.2214 29.9096 51.2214C19.7822 51.2214 11.1947 44.1992 9.14316 34.3922L11.526 36.0752C11.8165 36.2802 12.2175 36.2112 12.4225 35.9207C12.6272 35.6309 12.5582 35.2296 12.2683 35.0245L8.12792 32.1003L5.11916 36.3324C4.91317 36.6219 4.98099 37.0235 5.2705 37.2292C5.38354 37.3095 5.51386 37.3482 5.6426 37.3482C5.84387 37.3482 6.04201 37.254 6.16729 37.0778L7.88535 34.6612C10.0631 45.061 19.1701 52.5075 29.9096 52.5075C41.3659 52.5075 50.9797 43.9362 52.2721 32.5697C52.3123 32.2171 52.0586 31.8983 51.7057 31.8582Z"></path>
<path stroke-width="0.5" stroke="#161A30" fill="#161A30" d="M54.7298 23.947C54.4403 23.741 54.038 23.8094 53.833 24.0983L52.1421 26.4767C50.4379 15.5756 41.0777 7.49268 29.9098 7.49268C18.0001 7.49268 8.1304 16.7975 7.44054 28.6755C7.42013 29.03 7.69079 29.3343 8.0453 29.355C8.05818 29.3557 8.07074 29.356 8.0833 29.356C8.42148 29.356 8.70471 29.0919 8.7248 28.7503C9.37478 17.5514 18.6805 8.77882 29.9098 8.77882C40.4846 8.77882 49.3408 16.4644 50.8922 26.8087L48.4742 25.1009C48.1841 24.8965 47.7822 24.9653 47.5778 25.2554C47.373 25.5452 47.4421 25.9465 47.7319 26.1516L51.8724 29.0759L54.8811 24.8438C55.0871 24.5543 55.0193 24.1527 54.7298 23.947Z"></path>
</svg>
