<svg width="194" height="142" viewBox="0 0 194 142" fill="none" xmlns="http://www.w3.org/2000/svg">
<line x1="21.2021" y1="11.5891" x2="21.2021" y2="122.624" stroke="black"/>
<line x1="20.7021" y1="122.124" x2="180.798" y2="122.124" stroke="black"/>
<path d="M12.0645 111.924L4.10004 111.924L4.10004 111.079L12.0645 111.079L12.0645 111.924ZM8.46426 111.368L7.68866 111.368L7.68866 107.096L8.46426 107.096L8.46426 111.368ZM4.87565 111.368L4.10004 111.368L4.10004 106.9L4.87565 106.9L4.87565 111.368ZM12.0645 105.552L6.62365 105.552L6.62365 104.742L12.0645 104.742L12.0645 105.552ZM8.89258 104.742L8.74209 105.078C8.05524 105.078 7.51116 104.912 7.10985 104.58C6.70854 104.24 6.50789 103.777 6.50789 103.191C6.50789 102.921 6.55805 102.674 6.65838 102.45C6.75099 102.226 6.90148 102.018 7.10985 101.825L7.67708 102.357C7.53045 102.489 7.42626 102.635 7.36453 102.797C7.30279 102.952 7.27192 103.129 7.27192 103.33C7.27192 103.746 7.41083 104.086 7.68866 104.348C7.95877 104.611 8.36008 104.742 8.89258 104.742ZM12.1802 98.6427C12.1802 99.1906 12.0567 99.6807 11.8098 100.113C11.5628 100.545 11.2233 100.888 10.7911 101.143C10.3589 101.39 9.8727 101.514 9.33248 101.514C8.79997 101.514 8.32149 101.39 7.89703 101.143C7.46485 100.896 7.12528 100.56 6.87833 100.136C6.63137 99.7116 6.50789 99.237 6.50789 98.7122C6.50789 98.2182 6.61979 97.7822 6.8436 97.4041C7.0674 97.0182 7.37996 96.7172 7.78127 96.5011C8.17486 96.2773 8.63019 96.1654 9.14726 96.1654C9.209 96.1654 9.28231 96.1693 9.3672 96.177C9.44438 96.1847 9.53699 96.2001 9.64503 96.2233L9.64503 100.935L8.95046 100.935L8.95046 96.6632L9.20514 96.9526C8.80383 96.9449 8.4604 97.0143 8.17486 97.161C7.88159 97.2999 7.65779 97.5044 7.50344 97.7745C7.34137 98.0369 7.26034 98.3572 7.26034 98.7353C7.26034 99.1289 7.34523 99.4723 7.51502 99.7656C7.6848 100.059 7.92404 100.29 8.23274 100.46C8.53372 100.622 8.89258 100.703 9.30932 100.703C9.72607 100.703 10.0926 100.618 10.4091 100.449C10.7255 100.271 10.9724 100.028 11.1499 99.7193C11.3274 99.4029 11.4162 99.0402 11.4162 98.6311C11.4162 98.2993 11.3583 97.9944 11.2425 97.7166C11.1191 97.4388 10.9377 97.2034 10.6985 97.0105L11.231 96.4895C11.5319 96.7442 11.7673 97.0606 11.9371 97.4388C12.0992 97.8092 12.1802 98.2105 12.1802 98.6427ZM12.1802 92.4137C12.1802 92.9617 12.0567 93.4517 11.8098 93.8839C11.5628 94.3161 11.2233 94.6595 10.7911 94.9142C10.3589 95.1611 9.8727 95.2846 9.33247 95.2846C8.79997 95.2846 8.32149 95.1611 7.89703 94.9142C7.46485 94.6672 7.12528 94.3315 6.87833 93.9071C6.63137 93.4826 6.50789 93.008 6.50789 92.4832C6.50789 91.9893 6.61979 91.5532 6.8436 91.1751C7.0674 90.7892 7.37996 90.4882 7.78127 90.2721C8.17486 90.0483 8.63019 89.9364 9.14726 89.9364C9.209 89.9364 9.28231 89.9403 9.3672 89.948C9.44438 89.9557 9.53699 89.9712 9.64503 89.9943L9.64503 94.7058L8.95046 94.7058L8.95046 90.4342L9.20514 90.7236C8.80383 90.7159 8.4604 90.7854 8.17486 90.932C7.88159 91.0709 7.65779 91.2754 7.50344 91.5455C7.34137 91.8079 7.26034 92.1282 7.26034 92.5063C7.26034 92.8999 7.34523 93.2434 7.51502 93.5366C7.6848 93.8299 7.92404 94.0614 8.23274 94.2312C8.53372 94.3933 8.89258 94.4743 9.30932 94.4743C9.72606 94.4743 10.0926 94.3894 10.4091 94.2196C10.7255 94.0421 10.9724 93.799 11.1499 93.4903C11.3274 93.1739 11.4162 92.8112 11.4162 92.4022C11.4162 92.0703 11.3583 91.7655 11.2425 91.4876C11.1191 91.2098 10.9377 90.9744 10.6985 90.7815L11.231 90.2606C11.5319 90.5152 11.7673 90.8317 11.9371 91.2098C12.0992 91.5802 12.1802 91.9816 12.1802 92.4137ZM12.0645 83.9827L4.31999 83.9828L4.31999 83.1261L12.0645 83.1261L12.0645 83.9827ZM4.87565 86.7842L4.10004 86.7842L4.10004 80.3247L4.87565 80.3247L4.87565 86.7842ZM12.1802 78.1809C12.1802 78.7289 12.0567 79.2189 11.8098 79.6511C11.5628 80.0833 11.2232 80.4267 10.7911 80.6814C10.3589 80.9283 9.8727 81.0518 9.33247 81.0518C8.79997 81.0518 8.32149 80.9283 7.89703 80.6814C7.46485 80.4344 7.12528 80.0987 6.87833 79.6742C6.63137 79.2498 6.50789 78.7752 6.50789 78.2504C6.50789 77.7565 6.61979 77.3204 6.8436 76.9423C7.0674 76.5564 7.37996 76.2554 7.78127 76.0393C8.17486 75.8155 8.63019 75.7036 9.14726 75.7036C9.20899 75.7036 9.28231 75.7075 9.3672 75.7152C9.44438 75.7229 9.53699 75.7383 9.64503 75.7615L9.64503 80.473L8.95046 80.473L8.95046 76.2014L9.20514 76.4908C8.80383 76.4831 8.4604 76.5525 8.17486 76.6992C7.88159 76.8381 7.65779 77.0426 7.50344 77.3127C7.34137 77.5751 7.26034 77.8954 7.26034 78.2735C7.26034 78.6671 7.34523 79.0105 7.51501 79.3038C7.6848 79.5971 7.92404 79.8286 8.23274 79.9984C8.53372 80.1604 8.89258 80.2415 9.30932 80.2415C9.72606 80.2415 10.0926 80.1566 10.4091 79.9868C10.7255 79.8093 10.9724 79.5662 11.1499 79.2575C11.3274 78.9411 11.4162 78.5784 11.4162 78.1693C11.4162 77.8375 11.3583 77.5326 11.2425 77.2548C11.1191 76.977 10.9377 76.7416 10.6985 76.5487L11.231 76.0277C11.5319 76.2824 11.7673 76.5988 11.9371 76.977C12.0992 77.3474 12.1802 77.7487 12.1802 78.1809ZM12.1802 72.797C12.1802 73.0903 12.1416 73.3719 12.0645 73.6421C11.9796 73.9122 11.8638 74.1591 11.7172 74.3829C11.5705 74.599 11.3969 74.7881 11.1962 74.9502L10.6637 74.4292C10.9261 74.2132 11.1229 73.9701 11.2541 73.6999C11.3776 73.4221 11.4393 73.1134 11.4393 72.7738C11.4393 72.4111 11.3699 72.1294 11.231 71.9288C11.0921 71.7204 10.8991 71.6162 10.6522 71.6162C10.4206 71.6162 10.2393 71.6895 10.1081 71.8362C9.97688 71.9828 9.8727 72.1719 9.79552 72.4034C9.71835 72.6272 9.64503 72.8665 9.57557 73.1211C9.4984 73.3758 9.40579 73.6189 9.29775 73.8504C9.18198 74.082 9.02378 74.271 8.82312 74.4177C8.62247 74.5566 8.36008 74.626 8.03594 74.626C7.72724 74.626 7.46099 74.5527 7.23719 74.4061C7.00566 74.2517 6.82816 74.0357 6.70468 73.7578C6.57349 73.4723 6.50789 73.1366 6.50789 72.7507C6.50789 72.3417 6.5812 71.9712 6.72783 71.6394C6.87447 71.3075 7.09055 71.0413 7.3761 70.8406L7.89703 71.3616C7.68866 71.5236 7.53045 71.7281 7.4224 71.9751C7.30664 72.2143 7.24876 72.4844 7.24876 72.7854C7.24876 73.1327 7.31822 73.399 7.45713 73.5842C7.58833 73.7617 7.76197 73.8504 7.97806 73.8504C8.18643 73.8504 8.35236 73.7771 8.47584 73.6305C8.5916 73.4839 8.68807 73.2986 8.76524 73.0748C8.8347 72.8433 8.90801 72.6002 8.98519 72.3455C9.05465 72.0909 9.15111 71.8478 9.27459 71.6162C9.39035 71.3847 9.55242 71.1995 9.76079 71.0606C9.96145 70.9139 10.2354 70.8406 10.5827 70.8406C11.0689 70.8406 11.4586 71.0181 11.7519 71.3731C12.0374 71.7204 12.1802 72.195 12.1802 72.797ZM12.0645 68.7126L4.33157 68.7126L4.33157 67.9023L12.0645 67.9023L12.0645 68.7126ZM7.35295 70.0902L6.62365 70.0902L6.62365 66.5363L7.35295 66.5363L7.35295 70.0902ZM12.1802 63.1465C12.1802 63.6713 12.0529 64.1498 11.7982 64.582C11.5435 65.0064 11.2001 65.346 10.7679 65.6007C10.3357 65.8476 9.8534 65.9711 9.3209 65.9711C8.79611 65.9711 8.32149 65.8476 7.89703 65.6007C7.47257 65.346 7.13686 65.0064 6.8899 64.582C6.63522 64.1498 6.50789 63.6713 6.50789 63.1465C6.50789 62.614 6.63137 62.1356 6.87832 61.7111C7.12528 61.2866 7.46485 60.9509 7.89703 60.704C8.32149 60.4493 8.79611 60.322 9.3209 60.322C9.86112 60.322 10.3473 60.4493 10.7795 60.704C11.204 60.9509 11.5435 61.2866 11.7982 61.7111C12.0529 62.1356 12.1802 62.614 12.1802 63.1465ZM11.393 63.1465C11.393 62.7607 11.3043 62.4211 11.1268 62.1278C10.9493 61.8269 10.7023 61.5915 10.3859 61.4217C10.0695 61.2442 9.71449 61.1554 9.3209 61.1554C8.92731 61.1554 8.58002 61.2442 8.27904 61.4217C7.97034 61.5915 7.72724 61.8269 7.54974 62.1278C7.37224 62.4211 7.28349 62.7607 7.28349 63.1465C7.28349 63.5247 7.37224 63.8643 7.54974 64.1652C7.72724 64.4662 7.97034 64.7016 8.27904 64.8714C8.58002 65.0412 8.92731 65.1261 9.3209 65.1261C9.7222 65.1261 10.0811 65.0412 10.3975 64.8714C10.7062 64.7016 10.9493 64.4662 11.1268 64.1652C11.3043 63.8643 11.393 63.5247 11.393 63.1465ZM12.1802 57.3659C12.1802 57.6591 12.1416 57.9408 12.0645 58.2109C11.9796 58.481 11.8638 58.728 11.7172 58.9518C11.5705 59.1679 11.3969 59.357 11.1962 59.519L10.6637 58.9981C10.9261 58.782 11.1229 58.5389 11.2541 58.2688C11.3776 57.991 11.4393 57.6823 11.4393 57.3427C11.4393 56.98 11.3699 56.6983 11.231 56.4977C11.0921 56.2893 10.8991 56.1851 10.6522 56.1851C10.4206 56.1851 10.2393 56.2584 10.1081 56.405C9.97688 56.5517 9.87269 56.7408 9.79552 56.9723C9.71835 57.1961 9.64503 57.4353 9.57557 57.69C9.4984 57.9447 9.40579 58.1878 9.29774 58.4193C9.18198 58.6508 9.02378 58.8399 8.82312 58.9865C8.62247 59.1254 8.36007 59.1949 8.03594 59.1949C7.72724 59.1949 7.46099 59.1216 7.23719 58.975C7.00566 58.8206 6.82816 58.6045 6.70468 58.3267C6.57348 58.0411 6.50789 57.7054 6.50789 57.3196C6.50789 56.9105 6.5812 56.5401 6.72783 56.2083C6.87447 55.8764 7.09055 55.6101 7.3761 55.4095L7.89703 55.9304C7.68866 56.0925 7.53045 56.297 7.4224 56.544C7.30664 56.7832 7.24876 57.0533 7.24876 57.3543C7.24876 57.7016 7.31822 57.9678 7.45713 58.153C7.58833 58.3306 7.76197 58.4193 7.97806 58.4193C8.18643 58.4193 8.35236 58.346 8.47584 58.1994C8.5916 58.0527 8.68807 57.8675 8.76524 57.6437C8.8347 57.4122 8.90801 57.1691 8.98519 56.9144C9.05465 56.6597 9.15111 56.4166 9.27459 56.1851C9.39035 55.9536 9.55242 55.7684 9.76079 55.6294C9.96145 55.4828 10.2354 55.4095 10.5827 55.4095C11.0689 55.4095 11.4586 55.587 11.7519 55.942C12.0374 56.2893 12.1802 56.7639 12.1802 57.3659ZM12.0645 53.2815L4.33157 53.2815L4.33157 52.4711L12.0645 52.4711L12.0645 53.2815ZM7.35295 54.659L6.62365 54.659L6.62365 51.1051L7.35295 51.1051L7.35295 54.659ZM12.1802 47.6691C12.1802 48.217 12.0567 48.7071 11.8098 49.1393C11.5628 49.5715 11.2232 49.9149 10.7911 50.1696C10.3589 50.4165 9.87269 50.54 9.33247 50.54C8.79997 50.54 8.32149 50.4165 7.89703 50.1696C7.46485 49.9226 7.12528 49.5869 6.87832 49.1624C6.63137 48.738 6.50789 48.2633 6.50789 47.7386C6.50789 47.2446 6.61979 46.8086 6.84359 46.4305C7.0674 46.0446 7.37996 45.7436 7.78127 45.5275C8.17486 45.3037 8.63018 45.1918 9.14725 45.1918C9.20899 45.1918 9.28231 45.1957 9.3672 45.2034C9.44438 45.2111 9.53699 45.2265 9.64503 45.2497L9.64503 49.9612L8.95046 49.9612L8.95046 45.6896L9.20513 45.979C8.80383 45.9713 8.4604 46.0407 8.17486 46.1874C7.88159 46.3263 7.65779 46.5308 7.50344 46.8009C7.34137 47.0633 7.26034 47.3836 7.26034 47.7617C7.26034 48.1553 7.34523 48.4987 7.51501 48.792C7.6848 49.0853 7.92404 49.3168 8.23274 49.4866C8.53372 49.6486 8.89258 49.7297 9.30932 49.7297C9.72606 49.7297 10.0926 49.6448 10.4091 49.475C10.7255 49.2975 10.9724 49.0544 11.1499 48.7457C11.3274 48.4293 11.4162 48.0666 11.4162 47.6575C11.4162 47.3257 11.3583 47.0208 11.2425 46.743C11.1191 46.4652 10.9377 46.2298 10.6985 46.0369L11.231 45.5159C11.5319 45.7706 11.7673 46.087 11.9371 46.4652C12.0992 46.8356 12.1802 47.2369 12.1802 47.6691ZM12.0645 43.9522L6.62365 43.9522L6.62365 43.1418L12.0644 43.1418L12.0645 43.9522ZM8.89258 43.1418L8.74209 43.4775C8.05523 43.4775 7.51115 43.3116 7.10985 42.9798C6.70854 42.6402 6.50789 42.1771 6.50789 41.5906C6.50789 41.3205 6.55805 41.0735 6.65838 40.8497C6.75099 40.6259 6.90148 40.4176 7.10985 40.2246L7.67708 40.7571C7.53045 40.8883 7.42626 41.035 7.36452 41.197C7.30278 41.3514 7.27191 41.5289 7.27191 41.7295C7.27191 42.1463 7.41083 42.4858 7.68866 42.7482C7.95877 43.0106 8.36007 43.1418 8.89258 43.1418ZM12.1802 37.0888C12.1802 37.6136 12.0529 38.0921 11.7982 38.5243C11.5435 38.9487 11.2001 39.2883 10.7679 39.543C10.3357 39.7899 9.8534 39.9134 9.3209 39.9134C8.79611 39.9134 8.32149 39.7899 7.89703 39.543C7.47257 39.2883 7.13686 38.9487 6.8899 38.5243C6.63522 38.0921 6.50789 37.6136 6.50789 37.0888C6.50789 36.5563 6.63136 36.0779 6.87832 35.6534C7.12528 35.2289 7.46485 34.8932 7.89703 34.6463C8.32149 34.3916 8.79611 34.2643 9.3209 34.2643C9.86112 34.2643 10.3473 34.3916 10.7795 34.6463C11.204 34.8932 11.5435 35.2289 11.7982 35.6534C12.0529 36.0779 12.1802 36.5563 12.1802 37.0888ZM11.393 37.0888C11.393 36.703 11.3043 36.3634 11.1268 36.0701C10.9493 35.7692 10.7023 35.5338 10.3859 35.364C10.0695 35.1865 9.71449 35.0977 9.3209 35.0977C8.92731 35.0977 8.58002 35.1865 8.27904 35.364C7.97034 35.5338 7.72724 35.7692 7.54974 36.0701C7.37224 36.3634 7.28349 36.703 7.28349 37.0888C7.28349 37.467 7.37224 37.8066 7.54974 38.1075C7.72724 38.4085 7.97034 38.6439 8.27904 38.8137C8.58002 38.9835 8.92731 39.0684 9.3209 39.0684C9.7222 39.0684 10.0811 38.9835 10.3975 38.8137C10.7062 38.6439 10.9493 38.4085 11.1268 38.1075C11.3043 37.8066 11.393 37.467 11.393 37.0888ZM12.0644 29.0161L8.86942 29.0161C8.39094 29.0161 8.00507 29.1589 7.71181 29.4444C7.41083 29.7222 7.26034 30.0927 7.26034 30.5557C7.26034 30.8721 7.32979 31.15 7.46871 31.3892C7.60762 31.6284 7.7967 31.8175 8.03594 31.9564C8.27518 32.0954 8.54915 32.1648 8.85785 32.1648L8.64948 32.5352C8.24045 32.5352 7.87387 32.4388 7.54974 32.2458C7.22561 32.0529 6.97093 31.7944 6.78571 31.4702C6.60049 31.1384 6.50789 30.7602 6.50789 30.3358C6.50789 29.919 6.60821 29.5486 6.80887 29.2245C7.00952 28.9003 7.27963 28.6495 7.6192 28.472C7.95877 28.2868 8.3292 28.1942 8.73051 28.1942L12.0644 28.1942L12.0644 29.0161ZM12.0644 32.9751L6.62365 32.9751L6.62365 32.1648L12.0644 32.1648L12.0644 32.9751ZM12.1802 24.1663C12.1802 24.7142 12.0567 25.2043 11.8098 25.6365C11.5628 26.0687 11.2232 26.4121 10.7911 26.6668C10.3589 26.9137 9.87269 27.0372 9.33247 27.0372C8.79997 27.0372 8.32149 26.9137 7.89703 26.6668C7.46485 26.4198 7.12528 26.0841 6.87832 25.6596C6.63136 25.2352 6.50789 24.7605 6.50789 24.2358C6.50789 23.7418 6.61979 23.3058 6.84359 22.9277C7.0674 22.5418 7.37996 22.2408 7.78126 22.0247C8.17485 21.8009 8.63018 21.689 9.14725 21.689C9.20899 21.689 9.28231 21.6929 9.3672 21.7006C9.44437 21.7083 9.53698 21.7237 9.64503 21.7469L9.64503 26.4584L8.95046 26.4584L8.95046 22.1868L9.20513 22.4762C8.80383 22.4685 8.4604 22.5379 8.17485 22.6846C7.88159 22.8235 7.65779 23.028 7.50344 23.2981C7.34137 23.5605 7.26034 23.8808 7.26034 24.2589C7.26034 24.6525 7.34523 24.9959 7.51501 25.2892C7.6848 25.5825 7.92404 25.814 8.23274 25.9838C8.53372 26.1458 8.89258 26.2269 9.30932 26.2269C9.72606 26.2269 10.0926 26.142 10.4091 25.9722C10.7255 25.7947 10.9724 25.5516 11.1499 25.2429C11.3274 24.9265 11.4162 24.5638 11.4162 24.1547C11.4162 23.8229 11.3583 23.518 11.2425 23.2402C11.1191 22.9624 10.9377 22.727 10.6985 22.5341L11.231 22.0131C11.5319 22.2678 11.7673 22.5842 11.9371 22.9624C12.0992 23.3328 12.1802 23.7341 12.1802 24.1663Z" fill="#161A30"/>
<path d="M4.63741 137.902V137.115H6.9758C7.60091 137.115 8.15271 136.98 8.63119 136.71C9.10967 136.432 9.48397 136.054 9.75408 135.575C10.0242 135.089 10.1592 134.533 10.1592 133.908C10.1592 133.283 10.0242 132.731 9.75408 132.253C9.48397 131.774 9.10967 131.4 8.63119 131.13C8.15271 130.852 7.60091 130.713 6.9758 130.713H4.66056L4.66056 129.938H6.99895C7.57776 129.938 8.11026 130.038 8.59646 130.239C9.09038 130.432 9.5187 130.709 9.88142 131.072C10.2519 131.427 10.5374 131.848 10.7381 132.334C10.9387 132.812 11.039 133.341 11.039 133.92C11.039 134.483 10.9387 135.008 10.7381 135.494C10.5374 135.98 10.2557 136.405 9.89299 136.768C9.53027 137.123 9.10196 137.4 8.60804 137.601C8.12184 137.802 7.59319 137.902 7.0221 137.902H4.63741ZM4.11648 137.902L4.11648 129.938H4.96154L4.96154 137.902H4.11648ZM14.839 138.018C14.3219 138.018 13.8589 137.894 13.4499 137.647C13.0408 137.393 12.7167 137.053 12.4775 136.629C12.2459 136.204 12.1302 135.726 12.1302 135.193C12.1302 134.653 12.2459 134.171 12.4775 133.746C12.7167 133.314 13.0408 132.975 13.4499 132.728C13.8589 132.473 14.3181 132.346 14.8274 132.346C15.2442 132.346 15.6146 132.43 15.9387 132.6C16.2706 132.762 16.5368 132.994 16.7375 133.295C16.9459 133.588 17.0732 133.931 17.1195 134.325V136.027C17.0732 136.42 16.9459 136.768 16.7375 137.069C16.5368 137.37 16.2706 137.605 15.9387 137.775C15.6146 137.937 15.248 138.018 14.839 138.018ZM14.9663 137.242C15.5297 137.242 15.9812 137.053 16.3208 136.675C16.668 136.297 16.8417 135.799 16.8417 135.182C16.8417 134.773 16.7607 134.414 16.5986 134.105C16.4442 133.789 16.2243 133.546 15.9387 133.376C15.6609 133.198 15.3329 133.11 14.9548 133.11C14.5689 133.11 14.2255 133.198 13.9245 133.376C13.6312 133.553 13.3958 133.8 13.2183 134.117C13.0486 134.425 12.9637 134.78 12.9637 135.182C12.9637 135.583 13.0486 135.938 13.2183 136.247C13.3958 136.555 13.6351 136.799 13.9361 136.976C14.237 137.154 14.5805 137.242 14.9663 137.242ZM16.7954 137.902V136.444L16.9574 135.101L16.7954 133.793V132.461H17.6057L17.6057 137.902H16.7954ZM21.0665 137.925L18.6818 132.461H19.5732L21.4949 137.022H21.1591L23.185 132.461H24.0879L21.5296 137.925H21.0665ZM19.5848 140.194L21.0781 137.103L21.5296 137.925L20.4762 140.194H19.5848ZM26.6137 138.018C26.3204 138.018 26.0387 137.979 25.7686 137.902C25.4985 137.817 25.2516 137.701 25.0278 137.555C24.8117 137.408 24.6226 137.235 24.4605 137.034L24.9815 136.501C25.1975 136.764 25.4406 136.961 25.7108 137.092C25.9886 137.215 26.2973 137.277 26.6368 137.277C26.9996 137.277 27.2813 137.208 27.4819 137.069C27.6903 136.93 27.7945 136.737 27.7945 136.49C27.7945 136.258 27.7211 136.077 27.5745 135.946C27.4279 135.815 27.2388 135.71 27.0073 135.633C26.7835 135.556 26.5442 135.483 26.2896 135.413C26.0349 135.336 25.7918 135.243 25.5603 135.135C25.3287 135.02 25.1397 134.861 24.993 134.661C24.8541 134.46 24.7847 134.198 24.7847 133.874C24.7847 133.565 24.858 133.299 25.0046 133.075C25.159 132.843 25.375 132.666 25.6529 132.542C25.9384 132.411 26.2741 132.346 26.66 132.346C27.069 132.346 27.4395 132.419 27.7713 132.565C28.1032 132.712 28.3694 132.928 28.5701 133.214L28.0491 133.735C27.8871 133.526 27.6826 133.368 27.4356 133.26C27.1964 133.144 26.9263 133.086 26.6253 133.086C26.278 133.086 26.0117 133.156 25.8265 133.295C25.649 133.426 25.5603 133.6 25.5603 133.816C25.5603 134.024 25.6336 134.19 25.7802 134.313C25.9268 134.429 26.1121 134.526 26.3359 134.603C26.5674 134.672 26.8105 134.746 27.0652 134.823C27.3198 134.892 27.5629 134.989 27.7945 135.112C28.026 135.228 28.2112 135.39 28.3501 135.598C28.4968 135.799 28.5701 136.073 28.5701 136.42C28.5701 136.907 28.3926 137.296 28.0376 137.59C27.6903 137.875 27.2157 138.018 26.6137 138.018Z" fill="#161A30"/>
<path d="M44.936 138.018C44.3494 138.018 43.8131 137.852 43.3269 137.52C42.8407 137.181 42.451 136.702 42.1577 136.085C41.8721 135.467 41.7294 134.742 41.7294 133.908C41.7294 133.067 41.8721 132.346 42.1577 131.744C42.4432 131.134 42.8253 130.663 43.3037 130.331C43.7899 129.992 44.3263 129.822 44.9128 129.822C45.5071 129.822 46.0434 129.988 46.5219 130.32C47.0081 130.652 47.394 131.126 47.6795 131.744C47.9651 132.353 48.1078 133.079 48.1078 133.92C48.1078 134.753 47.9651 135.479 47.6795 136.096C47.394 136.714 47.012 137.188 46.5335 137.52C46.055 137.852 45.5225 138.018 44.936 138.018ZM44.9128 137.219C45.3682 137.219 45.7695 137.092 46.1167 136.837C46.4717 136.575 46.7496 136.2 46.9502 135.714C47.1509 135.22 47.2512 134.618 47.2512 133.908C47.2512 133.206 47.1509 132.612 46.9502 132.126C46.7496 131.632 46.4717 131.257 46.1167 131.003C45.7695 130.748 45.3682 130.621 44.9128 130.621C44.4652 130.621 44.0639 130.748 43.7089 131.003C43.3616 131.257 43.0876 131.628 42.887 132.114C42.6863 132.6 42.586 133.198 42.586 133.908C42.586 134.618 42.6863 135.22 42.887 135.714C43.0876 136.2 43.3616 136.575 43.7089 136.837C44.0639 137.092 44.4652 137.219 44.9128 137.219Z" fill="#161A30"/>
<path d="M100.318 138.018C99.8086 138.018 99.3417 137.918 98.9172 137.717C98.5004 137.516 98.1493 137.227 97.8638 136.849L98.431 136.281C98.6239 136.575 98.8863 136.806 99.2182 136.976C99.55 137.138 99.9127 137.219 100.306 137.219C100.692 137.219 101.024 137.146 101.302 136.999C101.587 136.853 101.807 136.648 101.962 136.386C102.124 136.116 102.205 135.803 102.205 135.448C102.205 135.085 102.124 134.773 101.962 134.51C101.807 134.248 101.584 134.043 101.29 133.897C101.005 133.75 100.661 133.677 100.26 133.677C100.129 133.677 99.9938 133.685 99.8549 133.7C99.7237 133.715 99.5925 133.742 99.4613 133.781L99.7854 133.306C99.9166 133.237 100.059 133.183 100.214 133.144C100.368 133.106 100.538 133.086 100.723 133.086C101.163 133.086 101.56 133.191 101.915 133.399C102.27 133.6 102.548 133.881 102.749 134.244C102.957 134.599 103.061 135.012 103.061 135.483C103.061 135.984 102.946 136.424 102.714 136.802C102.483 137.181 102.159 137.478 101.742 137.694C101.333 137.91 100.858 138.018 100.318 138.018ZM99.4613 133.781V133.26L101.985 130.424L102.969 130.459L100.399 133.33L99.4613 133.781ZM98.211 130.69V129.938H102.969V130.459L102.24 130.69H98.211ZM107.462 138.018C106.876 138.018 106.339 137.852 105.853 137.52C105.367 137.181 104.977 136.702 104.684 136.085C104.398 135.467 104.256 134.742 104.256 133.908C104.256 133.067 104.398 132.346 104.684 131.744C104.969 131.134 105.351 130.663 105.83 130.331C106.316 129.992 106.853 129.822 107.439 129.822C108.033 129.822 108.57 129.988 109.048 130.32C109.534 130.652 109.92 131.126 110.206 131.744C110.491 132.353 110.634 133.079 110.634 133.92C110.634 134.753 110.491 135.479 110.206 136.096C109.92 136.714 109.538 137.188 109.06 137.52C108.581 137.852 108.049 138.018 107.462 138.018ZM107.439 137.219C107.894 137.219 108.296 137.092 108.643 136.837C108.998 136.575 109.276 136.2 109.476 135.714C109.677 135.22 109.777 134.618 109.777 133.908C109.777 133.206 109.677 132.612 109.476 132.126C109.276 131.632 108.998 131.257 108.643 131.003C108.296 130.748 107.894 130.621 107.439 130.621C106.991 130.621 106.59 130.748 106.235 131.003C105.888 131.257 105.614 131.628 105.413 132.114C105.213 132.6 105.112 133.198 105.112 133.908C105.112 134.618 105.213 135.22 105.413 135.714C105.614 136.2 105.888 136.575 106.235 136.837C106.59 137.092 106.991 137.219 107.439 137.219Z" fill="#161A30"/>
<path d="M159.965 138.018C159.456 138.018 158.993 137.898 158.576 137.659C158.167 137.412 157.839 137.084 157.592 136.675C157.353 136.266 157.233 135.811 157.233 135.309C157.233 134.63 157.468 133.966 157.939 133.318L160.44 129.938H161.435L158.958 133.214L158.657 133.33C158.765 133.191 158.888 133.075 159.027 132.982C159.174 132.882 159.34 132.805 159.525 132.751C159.71 132.697 159.923 132.67 160.162 132.67C160.633 132.67 161.061 132.785 161.447 133.017C161.833 133.241 162.141 133.549 162.373 133.943C162.604 134.337 162.72 134.784 162.72 135.286C162.72 135.788 162.597 136.247 162.35 136.663C162.103 137.072 161.771 137.4 161.354 137.647C160.937 137.894 160.474 138.018 159.965 138.018ZM159.977 137.231C160.324 137.231 160.64 137.146 160.926 136.976C161.219 136.799 161.451 136.563 161.62 136.27C161.79 135.969 161.875 135.641 161.875 135.286C161.875 134.923 161.79 134.595 161.62 134.302C161.451 134.009 161.219 133.777 160.926 133.607C160.64 133.43 160.324 133.341 159.977 133.341C159.622 133.341 159.297 133.43 159.004 133.607C158.719 133.777 158.491 134.009 158.321 134.302C158.159 134.587 158.078 134.915 158.078 135.286C158.078 135.649 158.159 135.98 158.321 136.281C158.491 136.575 158.719 136.806 159.004 136.976C159.297 137.146 159.622 137.231 159.977 137.231ZM167.066 138.018C166.48 138.018 165.943 137.852 165.457 137.52C164.971 137.181 164.581 136.702 164.288 136.085C164.002 135.467 163.86 134.742 163.86 133.908C163.86 133.067 164.002 132.346 164.288 131.744C164.573 131.134 164.955 130.663 165.434 130.331C165.92 129.992 166.456 129.822 167.043 129.822C167.637 129.822 168.174 129.988 168.652 130.32C169.138 130.652 169.524 131.126 169.81 131.744C170.095 132.353 170.238 133.079 170.238 133.92C170.238 134.753 170.095 135.479 169.81 136.096C169.524 136.714 169.142 137.188 168.664 137.52C168.185 137.852 167.653 138.018 167.066 138.018ZM167.043 137.219C167.498 137.219 167.9 137.092 168.247 136.837C168.602 136.575 168.88 136.2 169.08 135.714C169.281 135.22 169.381 134.618 169.381 133.908C169.381 133.206 169.281 132.612 169.08 132.126C168.88 131.632 168.602 131.257 168.247 131.003C167.9 130.748 167.498 130.621 167.043 130.621C166.595 130.621 166.194 130.748 165.839 131.003C165.492 131.257 165.218 131.628 165.017 132.114C164.817 132.6 164.716 133.198 164.716 133.908C164.716 134.618 164.817 135.22 165.017 135.714C165.218 136.2 165.492 136.575 165.839 136.837C166.194 137.092 166.595 137.219 167.043 137.219Z" fill="#161A30"/>
<path d="M42.2533 102.88C42.2533 104.352 43.4472 105.546 44.9199 105.546C46.3927 105.546 47.5866 104.352 47.5866 102.88C47.5866 101.407 46.3927 100.213 44.9199 100.213C43.4472 100.213 42.2533 101.407 42.2533 102.88ZM164.222 16.3746C164.095 16.1293 163.793 16.033 163.548 16.1597L159.549 18.2241C159.304 18.3508 159.208 18.6524 159.335 18.8978C159.461 19.1431 159.763 19.2394 160.008 19.1127L163.562 17.2777L165.397 20.8319C165.524 21.0773 165.826 21.1735 166.071 21.0468C166.316 20.9201 166.413 20.6185 166.286 20.3732L164.222 16.3746ZM44.9199 102.88L45.2549 103.251C71.0793 79.9402 94.6768 77.1059 114.996 70.7165C125.155 67.5221 134.489 63.4339 142.779 55.419C151.066 47.4063 158.272 35.5075 164.254 16.756L163.777 16.604L163.301 16.452C157.351 35.1019 150.216 46.8371 142.083 54.7C133.953 62.5606 124.787 66.5894 114.696 69.7625C94.5169 76.1079 70.6173 79.0101 44.5849 102.508L44.9199 102.88Z" fill="#00B1FF"/>
<path d="M57.9949 58.9924V48.3466H59.7439V58.9924H57.9949ZM66.8249 58.9924V54.7797C66.8249 54.293 66.6678 53.8926 66.3535 53.5782C66.0493 53.2639 65.6539 53.1068 65.1672 53.1068C64.8428 53.1068 64.5538 53.1778 64.3003 53.3197C64.0469 53.4616 63.8491 53.6594 63.7072 53.9128C63.5653 54.1663 63.4943 54.4553 63.4943 54.7797L62.8403 54.4147C62.8403 53.8571 62.962 53.3653 63.2053 52.9395C63.4487 52.5035 63.7832 52.1639 64.2091 51.9205C64.645 51.6671 65.1317 51.5403 65.6691 51.5403C66.2166 51.5403 66.7033 51.6823 67.1291 51.9662C67.5549 52.2399 67.8895 52.5998 68.1328 53.046C68.3762 53.4819 68.4978 53.9382 68.4978 54.4147V58.9924H66.8249ZM61.8214 58.9924V51.6924H63.4943V58.9924H61.8214ZM73.5589 59.1445C72.839 59.1445 72.1851 58.9772 71.597 58.6426C71.0191 58.3081 70.5629 57.8518 70.2283 57.2739C69.8937 56.696 69.7264 56.0521 69.7264 55.3424C69.7264 54.6226 69.8937 53.9787 70.2283 53.411C70.5629 52.833 71.0191 52.3768 71.597 52.0422C72.1851 51.7076 72.839 51.5403 73.5589 51.5403C74.1267 51.5403 74.6539 51.6518 75.1406 51.8749C75.6374 52.0878 76.0582 52.3971 76.4029 52.8026L75.3079 53.9128C75.095 53.6594 74.8364 53.4718 74.5322 53.3501C74.2382 53.2183 73.9138 53.1524 73.5589 53.1524C73.1432 53.1524 72.7731 53.2487 72.4487 53.4414C72.1344 53.6239 71.886 53.8773 71.7035 54.2018C71.5311 54.5262 71.4449 54.9064 71.4449 55.3424C71.4449 55.7683 71.5311 56.1485 71.7035 56.483C71.886 56.8075 72.1344 57.066 72.4487 57.2587C72.7731 57.4412 73.1432 57.5324 73.5589 57.5324C73.9138 57.5324 74.2382 57.4716 74.5322 57.3499C74.8364 57.2181 75.095 57.0255 75.3079 56.772L76.4029 57.8822C76.0582 58.2878 75.6374 58.6021 75.1406 58.8251C74.6539 59.0381 74.1267 59.1445 73.5589 59.1445ZM77.609 58.9924V51.6924H79.2819V58.9924H77.609ZM79.2819 54.9318L78.704 54.6428C78.704 53.7202 78.9068 52.975 79.3123 52.4072C79.728 51.8293 80.3516 51.5403 81.1829 51.5403C81.5479 51.5403 81.8775 51.6062 82.1715 51.738C82.4655 51.8698 82.7393 52.0828 82.9927 52.3768L81.8977 53.5022C81.7659 53.3603 81.6189 53.2589 81.4567 53.198C81.2945 53.1372 81.1069 53.1068 80.894 53.1068C80.4276 53.1068 80.0423 53.2538 79.7381 53.5478C79.434 53.8419 79.2819 54.3032 79.2819 54.9318ZM86.9709 59.1445C86.2409 59.1445 85.5819 58.9823 84.9938 58.6578C84.4159 58.3233 83.9546 57.867 83.6099 57.2891C83.2753 56.7112 83.108 56.0623 83.108 55.3424C83.108 54.6226 83.2753 53.9787 83.6099 53.411C83.9445 52.833 84.3956 52.3768 84.9634 52.0422C85.5413 51.7076 86.1801 51.5403 86.8797 51.5403C87.559 51.5403 88.1572 51.6975 88.6743 52.0118C89.2015 52.3261 89.6121 52.757 89.9061 53.3045C90.2103 53.852 90.3624 54.4755 90.3624 55.1751C90.3624 55.2968 90.3523 55.4235 90.332 55.5553C90.3218 55.677 90.3016 55.8139 90.2711 55.966H84.279V54.5972H89.4043L88.7807 55.1447C88.7604 54.6986 88.6743 54.3235 88.5222 54.0193C88.3701 53.7151 88.1521 53.4819 87.8682 53.3197C87.5945 53.1575 87.2548 53.0764 86.8493 53.0764C86.4234 53.0764 86.0534 53.1676 85.739 53.3501C85.4247 53.5326 85.1814 53.7912 85.009 54.1257C84.8367 54.4502 84.7505 54.8405 84.7505 55.2968C84.7505 55.753 84.8417 56.1535 85.0242 56.4983C85.2068 56.843 85.4653 57.1117 85.7999 57.3043C86.1345 57.4868 86.5197 57.5781 86.9557 57.5781C87.3309 57.5781 87.6756 57.5121 87.9899 57.3803C88.3143 57.2485 88.5881 57.0559 88.8111 56.8024L89.8757 57.8822C89.5209 58.2979 89.09 58.6122 88.583 58.8251C88.0761 59.0381 87.5387 59.1445 86.9709 59.1445ZM94.7604 59.1445C94.1013 59.1445 93.5031 58.9772 92.9658 58.6426C92.4385 58.3081 92.0178 57.8569 91.7035 57.2891C91.3993 56.7112 91.2472 56.0674 91.2472 55.3576C91.2472 54.6378 91.3993 53.9939 91.7035 53.4262C92.0178 52.8482 92.4385 52.392 92.9658 52.0574C93.5031 51.7127 94.1013 51.5403 94.7604 51.5403C95.318 51.5403 95.8097 51.662 96.2356 51.9053C96.6715 52.1385 97.0163 52.463 97.2697 52.8787C97.5232 53.2944 97.6499 53.7658 97.6499 54.293V56.3918C97.6499 56.919 97.5232 57.3905 97.2697 57.8062C97.0264 58.2219 96.6867 58.5514 96.2508 58.7947C95.8148 59.0279 95.318 59.1445 94.7604 59.1445ZM95.0341 57.5628C95.6526 57.5628 96.1494 57.355 96.5245 56.9393C96.9098 56.5236 97.1024 55.9913 97.1024 55.3424C97.1024 54.9064 97.0163 54.5212 96.8439 54.1866C96.6715 53.852 96.4282 53.5935 96.1139 53.411C95.8097 53.2183 95.4498 53.122 95.0341 53.122C94.6285 53.122 94.2686 53.2183 93.9543 53.411C93.6501 53.5935 93.4068 53.852 93.2243 54.1866C93.0519 54.5212 92.9658 54.9064 92.9658 55.3424C92.9658 55.7784 93.0519 56.1637 93.2243 56.4983C93.4068 56.8328 93.6501 57.0965 93.9543 57.2891C94.2686 57.4716 94.6285 57.5628 95.0341 57.5628ZM96.996 58.9924V57.0305L97.2849 55.2512L96.996 53.487V51.6924H98.6689V58.9924H96.996ZM102.913 59.1445C102.508 59.1445 102.117 59.0938 101.742 58.9924C101.367 58.8809 101.022 58.7288 100.708 58.5362C100.394 58.3334 100.12 58.0901 99.8868 57.8062L100.951 56.7416C101.205 57.0356 101.494 57.2587 101.818 57.4108C102.153 57.5527 102.528 57.6237 102.944 57.6237C103.319 57.6237 103.603 57.5679 103.795 57.4564C103.988 57.3449 104.084 57.1826 104.084 56.9697C104.084 56.7467 103.993 56.5743 103.811 56.4526C103.628 56.331 103.39 56.2296 103.096 56.1485C102.812 56.0572 102.508 55.966 102.183 55.8747C101.869 55.7835 101.565 55.6618 101.271 55.5097C100.987 55.3475 100.754 55.1295 100.571 54.8557C100.389 54.582 100.297 54.2271 100.297 53.7912C100.297 53.3248 100.404 52.9243 100.617 52.5897C100.84 52.2551 101.149 51.9966 101.544 51.8141C101.95 51.6316 102.432 51.5403 102.989 51.5403C103.577 51.5403 104.094 51.6468 104.541 51.8597C104.997 52.0625 105.377 52.3717 105.681 52.7874L104.617 53.852C104.404 53.5884 104.16 53.3907 103.887 53.2589C103.613 53.1271 103.299 53.0612 102.944 53.0612C102.609 53.0612 102.351 53.1119 102.168 53.2132C101.986 53.3146 101.894 53.4616 101.894 53.6543C101.894 53.8571 101.986 54.0142 102.168 54.1257C102.351 54.2373 102.584 54.3336 102.868 54.4147C103.162 54.4958 103.466 54.5871 103.78 54.6885C104.105 54.7797 104.409 54.9115 104.693 55.0839C104.987 55.2461 105.225 55.4692 105.407 55.753C105.59 56.0268 105.681 56.3867 105.681 56.8328C105.681 57.5426 105.433 58.1053 104.936 58.521C104.439 58.9367 103.765 59.1445 102.913 59.1445ZM110.452 59.1445C109.722 59.1445 109.063 58.9823 108.475 58.6578C107.897 58.3233 107.436 57.867 107.091 57.2891C106.756 56.7112 106.589 56.0623 106.589 55.3424C106.589 54.6226 106.756 53.9787 107.091 53.411C107.425 52.833 107.877 52.3768 108.444 52.0422C109.022 51.7076 109.661 51.5403 110.361 51.5403C111.04 51.5403 111.638 51.6975 112.155 52.0118C112.682 52.3261 113.093 52.757 113.387 53.3045C113.691 53.852 113.843 54.4755 113.843 55.1751C113.843 55.2968 113.833 55.4235 113.813 55.5553C113.803 55.677 113.782 55.8139 113.752 55.966H107.76V54.5972H112.885L112.262 55.1447C112.241 54.6986 112.155 54.3235 112.003 54.0193C111.851 53.7151 111.633 53.4819 111.349 53.3197C111.075 53.1575 110.736 53.0764 110.33 53.0764C109.904 53.0764 109.534 53.1676 109.22 53.3501C108.906 53.5326 108.662 53.7912 108.49 54.1257C108.318 54.4502 108.231 54.8405 108.231 55.2968C108.231 55.753 108.323 56.1535 108.505 56.4983C108.688 56.843 108.946 57.1117 109.281 57.3043C109.615 57.4868 110.001 57.5781 110.437 57.5781C110.812 57.5781 111.157 57.5121 111.471 57.3803C111.795 57.2485 112.069 57.0559 112.292 56.8024L113.357 57.8822C113.002 58.2979 112.571 58.6122 112.064 58.8251C111.557 59.0381 111.02 59.1445 110.452 59.1445Z" fill="#161A30"/>
<path d="M66.6291 44.9406C65.0824 44.9406 63.6646 44.636 62.3757 44.0267C61.1102 43.4174 60.0439 42.5385 59.1768 41.3902L60.8992 39.6677C61.4851 40.5583 62.2819 41.2613 63.2896 41.7769C64.2973 42.269 65.3988 42.5151 66.594 42.5151C67.7658 42.5151 68.7735 42.2925 69.6171 41.8472C70.4842 41.4019 71.1521 40.7809 71.6208 39.9841C72.113 39.1639 72.3591 38.2147 72.3591 37.1367C72.3591 36.0353 72.113 35.0861 71.6208 34.2893C71.1521 33.4925 70.4725 32.8715 69.582 32.4262C68.7149 31.981 67.672 31.7583 66.4534 31.7583C66.055 31.7583 65.6449 31.7818 65.223 31.8286C64.8246 31.8755 64.4262 31.9575 64.0278 32.0747L65.0121 30.6334C65.4105 30.4225 65.8441 30.2585 66.3128 30.1413C66.7815 30.0241 67.297 29.9655 67.8595 29.9655C69.1953 29.9655 70.4022 30.2819 71.4802 30.9147C72.5583 31.524 73.4019 32.3794 74.0112 33.4808C74.644 34.5588 74.9604 35.8126 74.9604 37.2422C74.9604 38.7655 74.6088 40.1013 73.9058 41.2496C73.2027 42.3979 72.2184 43.3002 70.9529 43.9564C69.7109 44.6125 68.2696 44.9406 66.6291 44.9406ZM64.0278 32.0747V30.4928L71.6911 21.8804L74.6791 21.9859L66.8752 30.7038L64.0278 32.0747ZM60.2313 22.6889V20.404L74.6791 20.404V21.9859L72.4645 22.6889L60.2313 22.6889ZM85.4414 44.9406C83.8947 44.9406 82.4768 44.636 81.1879 44.0267C79.9224 43.4174 78.8561 42.5385 77.989 41.3902L79.7115 39.6677C80.2974 40.5583 81.0942 41.2613 82.1019 41.7769C83.1096 42.269 84.211 42.5151 85.4062 42.5151C86.578 42.5151 87.5857 42.2925 88.4294 41.8472C89.2965 41.4019 89.9644 40.7809 90.4331 39.9841C90.9252 39.1639 91.1713 38.2147 91.1713 37.1367C91.1713 36.0353 90.9252 35.0861 90.4331 34.2893C89.9644 33.4925 89.2848 32.8715 88.3942 32.4262C87.5271 31.981 86.4843 31.7583 85.2656 31.7583C84.8672 31.7583 84.4571 31.7818 84.0353 31.8286C83.6369 31.8755 83.2385 31.9575 82.8401 32.0747L83.8244 30.6334C84.2228 30.4225 84.6563 30.2585 85.125 30.1413C85.5937 30.0241 86.1093 29.9655 86.6717 29.9655C88.0075 29.9655 89.2145 30.2819 90.2925 30.9147C91.3705 31.524 92.2142 32.3794 92.8235 33.4808C93.4562 34.5588 93.7726 35.8126 93.7726 37.2422C93.7726 38.7655 93.4211 40.1013 92.718 41.2496C92.015 42.3979 91.0307 43.3002 89.7652 43.9564C88.5231 44.6125 87.0819 44.9406 85.4414 44.9406ZM82.8401 32.0747V30.4928L90.5034 21.8804L93.4914 21.9859L85.6875 30.7038L82.8401 32.0747ZM79.0436 22.6889V20.404H93.4914V21.9859L91.2768 22.6889H79.0436ZM98.137 44.5891L113.675 20.404H116.206L100.703 44.5891H98.137ZM111.811 44.9406C110.921 44.9406 110.101 44.7297 109.351 44.3079C108.601 43.8626 108.003 43.265 107.558 42.5151C107.113 41.7652 106.89 40.9332 106.89 40.0192C106.89 39.1053 107.113 38.285 107.558 37.5586C108.003 36.8321 108.589 36.2579 109.316 35.8361C110.066 35.3908 110.898 35.1682 111.811 35.1682C112.725 35.1682 113.546 35.3908 114.272 35.8361C115.022 36.2579 115.62 36.8321 116.065 37.5586C116.51 38.285 116.733 39.1053 116.733 40.0192C116.733 40.9332 116.51 41.7652 116.065 42.5151C115.643 43.265 115.057 43.8626 114.307 44.3079C113.557 44.7297 112.725 44.9406 111.811 44.9406ZM111.776 42.9369C112.62 42.9369 113.311 42.6674 113.85 42.1284C114.389 41.5894 114.659 40.8863 114.659 40.0192C114.659 39.1756 114.378 38.496 113.815 37.9804C113.253 37.4414 112.573 37.1719 111.776 37.1719C111.003 37.1719 110.347 37.4414 109.808 37.9804C109.269 38.496 108.999 39.1756 108.999 40.0192C108.999 40.8863 109.269 41.5894 109.808 42.1284C110.347 42.6674 111.003 42.9369 111.776 42.9369ZM102.531 29.8249C101.641 29.8249 100.82 29.614 100.07 29.1922C99.3205 28.7469 98.7229 28.161 98.2777 27.4345C97.8324 26.6846 97.6097 25.8527 97.6097 24.9387C97.6097 24.0247 97.8324 23.2045 98.2777 22.478C98.7229 21.7281 99.3088 21.1422 100.035 20.7204C100.785 20.2751 101.617 20.0525 102.531 20.0525C103.445 20.0525 104.265 20.2751 104.992 20.7204C105.742 21.1422 106.339 21.7281 106.785 22.478C107.23 23.2045 107.453 24.0247 107.453 24.9387C107.453 25.8527 107.23 26.6846 106.785 27.4345C106.363 28.161 105.777 28.7469 105.027 29.1922C104.277 29.614 103.445 29.8249 102.531 29.8249ZM102.496 27.8212C103.34 27.8212 104.019 27.5517 104.535 27.0127C105.074 26.4737 105.343 25.7706 105.343 24.9035C105.343 24.0599 105.062 23.3803 104.5 22.8647C103.961 22.3257 103.293 22.0562 102.496 22.0562C101.723 22.0562 101.066 22.3257 100.527 22.8647C99.9884 23.3803 99.7189 24.0599 99.7189 24.9035C99.7189 25.7706 99.9884 26.4737 100.527 27.0127C101.066 27.5517 101.723 27.8212 102.496 27.8212Z" fill="#161A30"/>
</svg>
