<svg width="194" height="142" viewBox="0 0 194 142" fill="none" xmlns="http://www.w3.org/2000/svg">
<line x1="21.2021" y1="11.5891" x2="21.2021" y2="122.624" stroke="black"/>
<line x1="20.7021" y1="122.124" x2="180.798" y2="122.124" stroke="black"/>
<path d="M12.1802 101.319C12.1802 101.936 12.0645 102.469 11.8329 102.917C11.5937 103.364 11.2618 103.758 10.8374 104.097L10.2586 103.507C10.6367 103.237 10.9184 102.924 11.1036 102.569C11.2888 102.207 11.3815 101.778 11.3815 101.284C11.3815 100.775 11.2657 100.362 11.0342 100.046C10.8026 99.7292 10.4824 99.571 10.0734 99.571C9.75693 99.571 9.4984 99.6443 9.29775 99.791C9.08938 99.9376 8.92345 100.131 8.79997 100.37C8.66877 100.601 8.55301 100.86 8.45269 101.145C8.35236 101.431 8.24817 101.716 8.14013 102.002C8.02437 102.28 7.88159 102.538 7.71181 102.778C7.54203 103.017 7.32594 103.21 7.06355 103.356C6.80115 103.495 6.46544 103.565 6.05642 103.565C5.62424 103.565 5.2538 103.461 4.94511 103.252C4.63641 103.044 4.40102 102.758 4.23896 102.396C4.06917 102.033 3.98428 101.62 3.98428 101.157C3.98428 100.64 4.08461 100.181 4.28526 99.7794C4.48592 99.3704 4.75603 99.0308 5.09559 98.7607L5.6744 99.3395C5.38114 99.5865 5.15733 99.8566 5.00299 100.15C4.84864 100.443 4.77146 100.787 4.77146 101.18C4.77146 101.643 4.87951 102.014 5.09559 102.291C5.31168 102.569 5.61266 102.708 5.99854 102.708C6.29952 102.708 6.54262 102.639 6.72784 102.5C6.91305 102.353 7.0674 102.16 7.19088 101.921C7.31436 101.682 7.42626 101.423 7.52659 101.145C7.6192 100.86 7.72339 100.574 7.83915 100.289C7.95491 100.003 8.10154 99.7447 8.27904 99.5131C8.45654 99.2739 8.68421 99.081 8.96204 98.9343C9.23215 98.7877 9.57943 98.7144 10.0039 98.7144C10.6907 98.7144 11.2271 98.9498 11.613 99.4205C11.9911 99.8836 12.1802 100.516 12.1802 101.319ZM12.1802 94.8951C12.1802 95.4431 12.0567 95.9331 11.8098 96.3653C11.5628 96.7975 11.2233 97.1409 10.7911 97.3956C10.3589 97.6426 9.8727 97.766 9.33247 97.766C8.79997 97.766 8.32149 97.6426 7.89703 97.3956C7.46485 97.1486 7.12528 96.8129 6.87833 96.3885C6.63137 95.964 6.50789 95.4894 6.50789 94.9646C6.50789 94.4707 6.61979 94.0347 6.8436 93.6565C7.0674 93.2706 7.37996 92.9696 7.78127 92.7536C8.17486 92.5297 8.63019 92.4178 9.14726 92.4178C9.209 92.4178 9.28231 92.4217 9.3672 92.4294C9.44438 92.4371 9.53699 92.4526 9.64503 92.4757L9.64503 97.1872L8.95046 97.1872L8.95046 92.9156L9.20514 93.205C8.80383 93.1973 8.4604 93.2668 8.17486 93.4134C7.88159 93.5523 7.65779 93.7568 7.50344 94.0269C7.34137 94.2893 7.26034 94.6096 7.26034 94.9878C7.26034 95.3813 7.34523 95.7248 7.51502 96.018C7.6848 96.3113 7.92404 96.5428 8.23274 96.7126C8.53372 96.8747 8.89258 96.9557 9.30932 96.9557C9.72606 96.9557 10.0926 96.8708 10.4091 96.701C10.7255 96.5235 10.9724 96.2804 11.1499 95.9717C11.3274 95.6553 11.4162 95.2926 11.4162 94.8836C11.4162 94.5517 11.3583 94.2469 11.2425 93.9691C11.1191 93.6912 10.9377 93.4558 10.6985 93.2629L11.231 92.742C11.5319 92.9967 11.7673 93.3131 11.9371 93.6912C12.0992 94.0617 12.1802 94.463 12.1802 94.8951ZM12.0645 91.1782L6.62365 91.1782L6.62365 90.3679L12.0645 90.3679L12.0645 91.1782ZM8.89258 90.3679L8.74209 90.7036C8.05524 90.7036 7.51116 90.5377 7.10985 90.2058C6.70854 89.8662 6.50789 89.4032 6.50789 88.8167C6.50789 88.5466 6.55805 88.2996 6.65838 88.0758C6.75099 87.852 6.90148 87.6436 7.10985 87.4507L7.67708 87.9832C7.53045 88.1144 7.42626 88.261 7.36452 88.4231C7.30279 88.5774 7.27192 88.7549 7.27192 88.9556C7.27192 89.3723 7.41083 89.7119 7.68866 89.9743C7.95877 90.2367 8.36008 90.3679 8.89258 90.3679ZM12.1802 84.4353C12.1802 84.8752 12.0799 85.2687 11.8792 85.616C11.6709 85.9633 11.3892 86.2373 11.0342 86.4379C10.6792 86.6309 10.2624 86.7273 9.78395 86.7273L6.62365 86.7273L6.62365 85.9054L9.74922 85.9054C10.0811 85.9054 10.3705 85.8476 10.6174 85.7318C10.8644 85.6083 11.0573 85.4347 11.1962 85.2109C11.3352 84.9871 11.4046 84.7285 11.4046 84.4353C11.4046 83.9799 11.2541 83.6211 10.9531 83.3587C10.6522 83.0886 10.2509 82.9535 9.74922 82.9535L6.62365 82.9535L6.62365 82.1432L9.78395 82.1432C10.2547 82.1432 10.6715 82.2396 11.0342 82.4326C11.3969 82.6255 11.6786 82.8956 11.8792 83.2429C12.0799 83.5902 12.1802 83.9876 12.1802 84.4353ZM12.0645 80.6308L6.62365 80.6308L6.62365 79.8204L12.0645 79.8204L12.0645 80.6308ZM12.0645 76.8917L8.73051 76.8917C8.2829 76.8917 7.9279 77.0267 7.6655 77.2968C7.39539 77.5669 7.26034 77.9065 7.26034 78.3155C7.26034 78.5934 7.32208 78.848 7.44556 79.0796C7.56132 79.3034 7.72724 79.4847 7.94333 79.6236C8.15942 79.7548 8.41796 79.8204 8.71894 79.8204L8.56845 80.1909C8.1517 80.1909 7.78898 80.0983 7.48029 79.913C7.17159 79.7278 6.93235 79.4809 6.76256 79.1722C6.59278 78.8558 6.50789 78.5007 6.50789 78.1072C6.50789 77.7213 6.59278 77.3779 6.76256 77.0769C6.93235 76.7682 7.17159 76.5251 7.48029 76.3476C7.78898 76.1624 8.15556 76.0698 8.58002 76.0698L12.0645 76.0698L12.0645 76.8917ZM12.0645 73.141L8.73051 73.141C8.2829 73.141 7.9279 73.276 7.6655 73.5461C7.39539 73.8163 7.26034 74.1597 7.26034 74.5764C7.26034 74.8465 7.32208 75.0974 7.44556 75.3289C7.56132 75.5527 7.72724 75.734 7.94333 75.873C8.15942 76.0042 8.41796 76.0698 8.71894 76.0698L8.56845 76.556C8.1517 76.5328 7.78898 76.4248 7.48029 76.2318C7.17159 76.0312 6.93235 75.7726 6.76256 75.4562C6.59278 75.1321 6.50789 74.7771 6.50789 74.3912C6.50789 74.0053 6.59278 73.658 6.76256 73.3494C6.93235 73.0329 7.17159 72.786 7.48029 72.6085C7.78898 72.4233 8.15556 72.3306 8.58002 72.3306L12.0645 72.3306L12.0645 73.141ZM12.1802 64.5112C12.1802 65.0823 12.076 65.6148 11.8677 66.1087C11.6593 66.5949 11.366 67.0194 10.9879 67.3821C10.6097 67.7448 10.1737 68.0265 9.67976 68.2272C9.17812 68.4201 8.64176 68.5166 8.07067 68.5166C7.49958 68.5166 6.96708 68.4201 6.47316 68.2272C5.97152 68.0265 5.53549 67.7487 5.16505 67.3937C4.79461 67.031 4.50521 66.6065 4.29684 66.1203C4.08847 65.6341 3.98428 65.1093 3.98428 64.5459C3.98428 63.9363 4.09233 63.3922 4.30841 62.9137C4.5245 62.4275 4.82162 62.003 5.19978 61.6403L5.77859 62.2191C5.46989 62.497 5.23065 62.8327 5.06086 63.2263C4.88336 63.6198 4.79461 64.0597 4.79461 64.5459C4.79461 64.9936 4.87565 65.4064 5.03771 65.7846C5.19978 66.155 5.4313 66.483 5.73228 66.7686C6.02555 67.0464 6.37283 67.2625 6.77414 67.4168C7.16773 67.5635 7.59991 67.6368 8.07067 67.6368C8.54144 67.6368 8.97747 67.5596 9.37878 67.4053C9.78009 67.2509 10.1312 67.0348 10.4322 66.757C10.7255 66.4792 10.9531 66.1512 11.1152 65.773C11.2773 65.3949 11.3583 64.982 11.3583 64.5344C11.3583 64.025 11.2696 63.5735 11.0921 63.18C10.9146 62.7786 10.6715 62.4391 10.3628 62.1613L10.9531 61.5824C11.3313 61.9374 11.6323 62.3619 11.8561 62.8558C12.0722 63.3497 12.1802 63.9015 12.1802 64.5112ZM12.1802 58.0424C12.1802 58.5672 12.0529 59.0457 11.7982 59.4778C11.5435 59.9023 11.2001 60.2419 10.7679 60.4965C10.3357 60.7435 9.8534 60.867 9.3209 60.867C8.79611 60.867 8.32149 60.7435 7.89703 60.4965C7.47257 60.2419 7.13686 59.9023 6.8899 59.4778C6.63522 59.0457 6.50789 58.5672 6.50789 58.0424C6.50789 57.5099 6.63137 57.0314 6.87832 56.6069C7.12528 56.1825 7.46485 55.8468 7.89703 55.5998C8.32149 55.3451 8.79611 55.2178 9.3209 55.2178C9.86112 55.2178 10.3473 55.3451 10.7795 55.5998C11.204 55.8468 11.5435 56.1825 11.7982 56.6069C12.0529 57.0314 12.1802 57.5099 12.1802 58.0424ZM11.393 58.0424C11.393 57.6565 11.3043 57.317 11.1268 57.0237C10.9493 56.7227 10.7023 56.4873 10.3859 56.3175C10.0695 56.14 9.71449 56.0513 9.3209 56.0513C8.92731 56.0513 8.58002 56.14 8.27904 56.3175C7.97034 56.4873 7.72724 56.7227 7.54974 57.0237C7.37224 57.317 7.28349 57.6565 7.28349 58.0424C7.28349 58.4205 7.37224 58.7601 7.54974 59.0611C7.72724 59.3621 7.97034 59.5975 8.27904 59.7672C8.58002 59.937 8.92731 60.0219 9.3209 60.0219C9.7222 60.0219 10.0811 59.937 10.3975 59.7672C10.7062 59.5975 10.9493 59.3621 11.1268 59.0611C11.3043 58.7601 11.393 58.4205 11.393 58.0424ZM12.0645 53.9287L6.62365 53.9287L6.62365 53.1184L12.0645 53.1184L12.0645 53.9287ZM8.89258 53.1184L8.74209 53.4541C8.05524 53.4541 7.51115 53.2881 7.10985 52.9563C6.70854 52.6167 6.50789 52.1537 6.50789 51.5672C6.50789 51.297 6.55805 51.0501 6.65838 50.8263C6.75099 50.6025 6.90148 50.3941 7.10985 50.2012L7.67708 50.7337C7.53045 50.8649 7.42626 51.0115 7.36452 51.1736C7.30278 51.3279 7.27191 51.5054 7.27191 51.7061C7.27191 52.1228 7.41083 52.4624 7.68866 52.7248C7.95877 52.9872 8.36007 53.1184 8.89258 53.1184ZM12.0645 48.5504L4.33157 48.5504L4.33156 47.7401L12.0645 47.7401L12.0645 48.5504ZM7.35295 49.9279L6.62365 49.9279L6.62365 46.3741L7.35295 46.3741L7.35295 49.9279ZM12.0645 45.2579L6.62365 45.2579L6.62365 44.436L12.0645 44.436L12.0645 45.2579ZM5.44288 44.8527C5.44288 45.007 5.38886 45.1382 5.28081 45.2463C5.16505 45.3543 5.02999 45.4084 4.87564 45.4084C4.71358 45.4084 4.57852 45.3543 4.47048 45.2463C4.36243 45.1382 4.30841 45.007 4.30841 44.8527C4.30841 44.6829 4.36243 44.5479 4.47048 44.4475C4.57852 44.3395 4.71358 44.2855 4.87564 44.2855C5.02999 44.2855 5.16505 44.3395 5.28081 44.4475C5.38886 44.5479 5.44288 44.6829 5.44288 44.8527ZM12.1802 41.1264C12.1802 41.4197 12.1416 41.7014 12.0644 41.9715C11.9796 42.2416 11.8638 42.4886 11.7172 42.7124C11.5705 42.9285 11.3969 43.1175 11.1962 43.2796L10.6637 42.7587C10.9261 42.5426 11.1229 42.2995 11.2541 42.0294C11.3776 41.7516 11.4393 41.4429 11.4393 41.1033C11.4393 40.7406 11.3699 40.4589 11.231 40.2582C11.0921 40.0499 10.8991 39.9457 10.6522 39.9457C10.4206 39.9457 10.2393 40.019 10.1081 40.1656C9.97688 40.3122 9.87269 40.5013 9.79552 40.7329C9.71835 40.9567 9.64503 41.1959 9.57557 41.4506C9.4984 41.7052 9.40579 41.9483 9.29774 42.1799C9.18198 42.4114 9.02377 42.6005 8.82312 42.7471C8.62247 42.886 8.36007 42.9555 8.03594 42.9555C7.72724 42.9555 7.46099 42.8822 7.23718 42.7355C7.00566 42.5812 6.82816 42.3651 6.70468 42.0873C6.57348 41.8017 6.50789 41.466 6.50789 41.0801C6.50789 40.6711 6.5812 40.3007 6.72783 39.9688C6.87446 39.637 7.09055 39.3707 7.3761 39.1701L7.89703 39.691C7.68866 39.8531 7.53045 40.0576 7.4224 40.3045C7.30664 40.5438 7.24876 40.8139 7.24876 41.1149C7.24876 41.4621 7.31822 41.7284 7.45713 41.9136C7.58833 42.0911 7.76197 42.1799 7.97806 42.1799C8.18643 42.1799 8.35236 42.1066 8.47584 41.9599C8.5916 41.8133 8.68807 41.6281 8.76524 41.4043C8.8347 41.1727 8.90801 40.9296 8.98519 40.675C9.05464 40.4203 9.15111 40.1772 9.27459 39.9457C9.39035 39.7141 9.55242 39.5289 9.76079 39.39C9.96144 39.2434 10.2354 39.1701 10.5827 39.1701C11.0689 39.1701 11.4586 39.3476 11.7519 39.7026C12.0374 40.0499 12.1802 40.5245 12.1802 41.1264ZM12.1802 35.4214C12.1802 35.9462 12.0529 36.4246 11.7982 36.8568C11.5435 37.2813 11.2001 37.6209 10.7679 37.8755C10.3357 38.1225 9.8534 38.246 9.3209 38.246C8.79611 38.246 8.32149 38.1225 7.89703 37.8755C7.47257 37.6209 7.13686 37.2813 6.8899 36.8568C6.63522 36.4246 6.50789 35.9462 6.50789 35.4214C6.50789 34.8889 6.63136 34.4104 6.87832 33.9859C7.12528 33.5615 7.46485 33.2258 7.89703 32.9788C8.32149 32.7241 8.79611 32.5968 9.3209 32.5968C9.86112 32.5968 10.3473 32.7241 10.7795 32.9788C11.204 33.2258 11.5435 33.5615 11.7982 33.9859C12.0529 34.4104 12.1802 34.8889 12.1802 35.4214ZM11.393 35.4214C11.393 35.0355 11.3043 34.6959 11.1268 34.4027C10.9493 34.1017 10.7023 33.8663 10.3859 33.6965C10.0695 33.519 9.71449 33.4303 9.3209 33.4303C8.92731 33.4303 8.58002 33.519 8.27904 33.6965C7.97034 33.8663 7.72724 34.1017 7.54974 34.4027C7.37224 34.6959 7.28349 35.0355 7.28349 35.4214C7.28349 35.7995 7.37224 36.1391 7.54974 36.4401C7.72724 36.7411 7.97034 36.9764 8.27904 37.1462C8.58002 37.316 8.92731 37.4009 9.3209 37.4009C9.7222 37.4009 10.0811 37.316 10.3975 37.1462C10.7062 36.9764 10.9493 36.7411 11.1268 36.4401C11.3043 36.1391 11.393 35.7995 11.393 35.4214ZM12.0644 31.3077L3.86852 31.3077L3.86852 30.4973L12.0644 30.4973L12.0644 31.3077Z" fill="#161A30"/>
<path d="M4.63741 137.902V137.115H6.9758C7.60091 137.115 8.15271 136.98 8.63119 136.71C9.10967 136.432 9.48397 136.054 9.75408 135.575C10.0242 135.089 10.1592 134.533 10.1592 133.908C10.1592 133.283 10.0242 132.731 9.75408 132.253C9.48397 131.774 9.10967 131.4 8.63119 131.13C8.15271 130.852 7.60091 130.713 6.9758 130.713H4.66056L4.66056 129.938H6.99895C7.57776 129.938 8.11026 130.038 8.59646 130.239C9.09038 130.432 9.5187 130.709 9.88142 131.072C10.2519 131.427 10.5374 131.848 10.7381 132.334C10.9387 132.812 11.039 133.341 11.039 133.92C11.039 134.483 10.9387 135.008 10.7381 135.494C10.5374 135.98 10.2557 136.405 9.89299 136.768C9.53027 137.123 9.10196 137.4 8.60804 137.601C8.12184 137.802 7.59319 137.902 7.0221 137.902H4.63741ZM4.11648 137.902L4.11648 129.938H4.96154L4.96154 137.902H4.11648ZM14.839 138.018C14.3219 138.018 13.8589 137.894 13.4499 137.647C13.0408 137.393 12.7167 137.053 12.4775 136.629C12.2459 136.204 12.1302 135.726 12.1302 135.193C12.1302 134.653 12.2459 134.171 12.4775 133.746C12.7167 133.314 13.0408 132.975 13.4499 132.728C13.8589 132.473 14.3181 132.346 14.8274 132.346C15.2442 132.346 15.6146 132.43 15.9387 132.6C16.2706 132.762 16.5368 132.994 16.7375 133.295C16.9459 133.588 17.0732 133.931 17.1195 134.325V136.027C17.0732 136.42 16.9459 136.768 16.7375 137.069C16.5368 137.37 16.2706 137.605 15.9387 137.775C15.6146 137.937 15.248 138.018 14.839 138.018ZM14.9663 137.242C15.5297 137.242 15.9812 137.053 16.3208 136.675C16.668 136.297 16.8417 135.799 16.8417 135.182C16.8417 134.773 16.7607 134.414 16.5986 134.105C16.4442 133.789 16.2243 133.546 15.9387 133.376C15.6609 133.198 15.3329 133.11 14.9548 133.11C14.5689 133.11 14.2255 133.198 13.9245 133.376C13.6312 133.553 13.3958 133.8 13.2183 134.117C13.0486 134.425 12.9637 134.78 12.9637 135.182C12.9637 135.583 13.0486 135.938 13.2183 136.247C13.3958 136.555 13.6351 136.799 13.9361 136.976C14.237 137.154 14.5805 137.242 14.9663 137.242ZM16.7954 137.902V136.444L16.9574 135.101L16.7954 133.793V132.461H17.6057L17.6057 137.902H16.7954ZM21.0665 137.925L18.6818 132.461H19.5732L21.4949 137.022H21.1591L23.185 132.461H24.0879L21.5296 137.925H21.0665ZM19.5848 140.194L21.0781 137.103L21.5296 137.925L20.4762 140.194H19.5848ZM26.6137 138.018C26.3204 138.018 26.0387 137.979 25.7686 137.902C25.4985 137.817 25.2516 137.701 25.0278 137.555C24.8117 137.408 24.6226 137.235 24.4605 137.034L24.9815 136.501C25.1975 136.764 25.4406 136.961 25.7108 137.092C25.9886 137.215 26.2973 137.277 26.6368 137.277C26.9996 137.277 27.2813 137.208 27.4819 137.069C27.6903 136.93 27.7945 136.737 27.7945 136.49C27.7945 136.258 27.7211 136.077 27.5745 135.946C27.4279 135.815 27.2388 135.71 27.0073 135.633C26.7835 135.556 26.5442 135.483 26.2896 135.413C26.0349 135.336 25.7918 135.243 25.5603 135.135C25.3287 135.02 25.1397 134.861 24.993 134.661C24.8541 134.46 24.7847 134.198 24.7847 133.874C24.7847 133.565 24.858 133.299 25.0046 133.075C25.159 132.843 25.375 132.666 25.6529 132.542C25.9384 132.411 26.2741 132.346 26.66 132.346C27.069 132.346 27.4395 132.419 27.7713 132.565C28.1032 132.712 28.3694 132.928 28.5701 133.214L28.0491 133.735C27.8871 133.526 27.6826 133.368 27.4356 133.26C27.1964 133.144 26.9263 133.086 26.6253 133.086C26.278 133.086 26.0117 133.156 25.8265 133.295C25.649 133.426 25.5603 133.6 25.5603 133.816C25.5603 134.024 25.6336 134.19 25.7802 134.313C25.9268 134.429 26.1121 134.526 26.3359 134.603C26.5674 134.672 26.8105 134.746 27.0652 134.823C27.3198 134.892 27.5629 134.989 27.7945 135.112C28.026 135.228 28.2112 135.39 28.3501 135.598C28.4968 135.799 28.5701 136.073 28.5701 136.42C28.5701 136.907 28.3926 137.296 28.0376 137.59C27.6903 137.875 27.2157 138.018 26.6137 138.018Z" fill="#161A30"/>
<path d="M104.63 138.018C104.121 138.018 103.654 137.918 103.23 137.717C102.813 137.516 102.462 137.227 102.176 136.849L102.743 136.281C102.936 136.575 103.199 136.806 103.531 136.976C103.863 137.138 104.225 137.219 104.619 137.219C105.005 137.219 105.337 137.146 105.614 136.999C105.9 136.853 106.12 136.648 106.274 136.386C106.436 136.116 106.517 135.803 106.517 135.448C106.517 135.085 106.436 134.773 106.274 134.51C106.12 134.248 105.896 134.043 105.603 133.897C105.317 133.75 104.974 133.677 104.573 133.677C104.441 133.677 104.306 133.685 104.167 133.7C104.036 133.715 103.905 133.742 103.774 133.781L104.098 133.306C104.229 133.237 104.372 133.183 104.526 133.144C104.681 133.106 104.85 133.086 105.036 133.086C105.475 133.086 105.873 133.191 106.228 133.399C106.583 133.6 106.861 133.881 107.061 134.244C107.27 134.599 107.374 135.012 107.374 135.483C107.374 135.984 107.258 136.424 107.027 136.802C106.795 137.181 106.471 137.478 106.054 137.694C105.645 137.91 105.171 138.018 104.63 138.018ZM103.774 133.781V133.26L106.297 130.424L107.281 130.459L104.711 133.33L103.774 133.781ZM102.524 130.69V129.938H107.281V130.459L106.552 130.69H102.524ZM111.775 138.018C111.188 138.018 110.652 137.852 110.166 137.52C109.679 137.181 109.29 136.702 108.996 136.085C108.711 135.467 108.568 134.742 108.568 133.908C108.568 133.067 108.711 132.346 108.996 131.744C109.282 131.134 109.664 130.663 110.142 130.331C110.629 129.992 111.165 129.822 111.752 129.822C112.346 129.822 112.882 129.988 113.361 130.32C113.847 130.652 114.233 131.126 114.518 131.744C114.804 132.353 114.947 133.079 114.947 133.92C114.947 134.753 114.804 135.479 114.518 136.096C114.233 136.714 113.851 137.188 113.372 137.52C112.894 137.852 112.361 138.018 111.775 138.018ZM111.752 137.219C112.207 137.219 112.608 137.092 112.955 136.837C113.31 136.575 113.588 136.2 113.789 135.714C113.99 135.22 114.09 134.618 114.09 133.908C114.09 133.206 113.99 132.612 113.789 132.126C113.588 131.632 113.31 131.257 112.955 131.003C112.608 130.748 112.207 130.621 111.752 130.621C111.304 130.621 110.903 130.748 110.548 131.003C110.2 131.257 109.926 131.628 109.726 132.114C109.525 132.6 109.425 133.198 109.425 133.908C109.425 134.618 109.525 135.22 109.726 135.714C109.926 136.2 110.2 136.575 110.548 136.837C110.903 137.092 111.304 137.219 111.752 137.219Z" fill="#161A30"/>
<path d="M46.4848 138.018C45.8983 138.018 45.3619 137.852 44.8757 137.52C44.3895 137.181 43.9998 136.702 43.7065 136.085C43.421 135.467 43.2782 134.742 43.2782 133.908C43.2782 133.067 43.421 132.346 43.7065 131.744C43.9921 131.134 44.3741 130.663 44.8526 130.331C45.3388 129.992 45.8751 129.822 46.4617 129.822C47.0559 129.822 47.5923 129.988 48.0707 130.32C48.5569 130.652 48.9428 131.126 49.2284 131.744C49.5139 132.353 49.6567 133.079 49.6567 133.92C49.6567 134.753 49.5139 135.479 49.2284 136.096C48.9428 136.714 48.5608 137.188 48.0823 137.52C47.6038 137.852 47.0713 138.018 46.4848 138.018ZM46.4617 137.219C46.917 137.219 47.3183 137.092 47.6656 136.837C48.0206 136.575 48.2984 136.2 48.4991 135.714C48.6997 135.22 48.8 134.618 48.8 133.908C48.8 133.206 48.6997 132.612 48.4991 132.126C48.2984 131.632 48.0206 131.257 47.6656 131.003C47.3183 130.748 46.917 130.621 46.4617 130.621C46.014 130.621 45.6127 130.748 45.2577 131.003C44.9104 131.257 44.6365 131.628 44.4358 132.114C44.2352 132.6 44.1348 133.198 44.1348 133.908C44.1348 134.618 44.2352 135.22 44.4358 135.714C44.6365 136.2 44.9104 136.575 45.2577 136.837C45.6127 137.092 46.014 137.219 46.4617 137.219Z" fill="#161A30"/>
<path d="M167.042 138.018C166.533 138.018 166.07 137.898 165.653 137.659C165.244 137.412 164.916 137.084 164.669 136.675C164.43 136.266 164.31 135.811 164.31 135.309C164.31 134.63 164.546 133.966 165.016 133.318L167.517 129.938H168.512L166.035 133.214L165.734 133.33C165.842 133.191 165.966 133.075 166.104 132.982C166.251 132.882 166.417 132.805 166.602 132.751C166.787 132.697 167 132.67 167.239 132.67C167.71 132.67 168.138 132.785 168.524 133.017C168.91 133.241 169.218 133.549 169.45 133.943C169.682 134.337 169.797 134.784 169.797 135.286C169.797 135.788 169.674 136.247 169.427 136.663C169.18 137.072 168.848 137.4 168.431 137.647C168.015 137.894 167.551 138.018 167.042 138.018ZM167.054 137.231C167.401 137.231 167.717 137.146 168.003 136.976C168.296 136.799 168.528 136.563 168.698 136.27C168.867 135.969 168.952 135.641 168.952 135.286C168.952 134.923 168.867 134.595 168.698 134.302C168.528 134.009 168.296 133.777 168.003 133.607C167.717 133.43 167.401 133.341 167.054 133.341C166.699 133.341 166.375 133.43 166.081 133.607C165.796 133.777 165.568 134.009 165.398 134.302C165.236 134.587 165.155 134.915 165.155 135.286C165.155 135.649 165.236 135.98 165.398 136.281C165.568 136.575 165.796 136.806 166.081 136.976C166.375 137.146 166.699 137.231 167.054 137.231ZM174.143 138.018C173.557 138.018 173.02 137.852 172.534 137.52C172.048 137.181 171.658 136.702 171.365 136.085C171.079 135.467 170.937 134.742 170.937 133.908C170.937 133.067 171.079 132.346 171.365 131.744C171.651 131.134 172.033 130.663 172.511 130.331C172.997 129.992 173.534 129.822 174.12 129.822C174.714 129.822 175.251 129.988 175.729 130.32C176.215 130.652 176.601 131.126 176.887 131.744C177.172 132.353 177.315 133.079 177.315 133.92C177.315 134.753 177.172 135.479 176.887 136.096C176.601 136.714 176.219 137.188 175.741 137.52C175.262 137.852 174.73 138.018 174.143 138.018ZM174.12 137.219C174.575 137.219 174.977 137.092 175.324 136.837C175.679 136.575 175.957 136.2 176.158 135.714C176.358 135.22 176.459 134.618 176.459 133.908C176.459 133.206 176.358 132.612 176.158 132.126C175.957 131.632 175.679 131.257 175.324 131.003C174.977 130.748 174.575 130.621 174.12 130.621C173.673 130.621 173.271 130.748 172.916 131.003C172.569 131.257 172.295 131.628 172.094 132.114C171.894 132.6 171.793 133.198 171.793 133.908C171.793 134.618 171.894 135.22 172.094 135.714C172.295 136.2 172.569 136.575 172.916 136.837C173.271 137.092 173.673 137.219 174.12 137.219Z" fill="#161A30"/>
<path d="M42.2533 23.2212C42.2533 24.694 43.4472 25.8879 44.9199 25.8879C46.3927 25.8879 47.5866 24.694 47.5866 23.2212C47.5866 21.7485 46.3927 20.5546 44.9199 20.5546C43.4472 20.5546 42.2533 21.7485 42.2533 23.2212ZM176 103.233C176.196 103.038 176.196 102.721 176 102.526L172.818 99.3442C172.623 99.149 172.307 99.149 172.111 99.3442C171.916 99.5395 171.916 99.8561 172.111 100.051L174.94 102.88L172.111 105.708C171.916 105.903 171.916 106.22 172.111 106.415C172.307 106.611 172.623 106.611 172.818 106.415L176 103.233ZM44.9199 23.2212L44.9853 23.7169C49.5266 23.1184 52.7747 23.8948 55.2865 25.651C57.8155 27.4192 59.6627 30.2244 61.306 33.8147C62.9509 37.4085 64.359 41.711 66.0573 46.4473C67.7505 51.1693 69.7218 56.2898 72.4793 61.4538C78.0012 71.7948 86.6655 82.2913 102.539 90.1936C118.399 98.0892 141.424 103.38 175.647 103.38V102.88V102.38C141.518 102.38 118.66 97.1022 102.984 89.2984C87.3225 81.5013 78.7996 71.1671 73.3614 60.9827C70.6388 55.884 68.6869 50.8182 66.9986 46.1098C65.3154 41.4156 63.8836 37.0436 62.2153 33.3985C60.5452 29.7498 58.6058 26.7516 55.8595 24.8315C53.0961 22.8993 49.5806 22.1026 44.8546 22.7255L44.9199 23.2212Z" fill="#00B1FF"/>
<path d="M86.5687 59.9714V58.3746H89.367C90.097 58.3746 90.7358 58.2174 91.2833 57.9031C91.8409 57.5888 92.2718 57.1528 92.576 56.5952C92.8903 56.0274 93.0474 55.3734 93.0474 54.6333C93.0474 53.9033 92.8903 53.2595 92.576 52.7018C92.2617 52.1442 91.8257 51.7082 91.2681 51.3939C90.7206 51.0796 90.0869 50.9224 89.367 50.9224H86.5687V49.3256H89.4126C90.1832 49.3256 90.898 49.4624 91.557 49.7362C92.2161 49.9998 92.7889 50.3749 93.2756 50.8616C93.7724 51.3381 94.1577 51.9008 94.4314 52.5497C94.7052 53.1885 94.842 53.8881 94.842 54.6485C94.842 55.3988 94.7052 56.0984 94.4314 56.7473C94.1577 57.3961 93.7774 57.9639 93.2908 58.4506C92.8041 58.9271 92.2313 59.3023 91.5722 59.576C90.9132 59.8396 90.2035 59.9714 89.4431 59.9714H86.5687ZM85.3672 59.9714V49.3256H87.1162V59.9714H85.3672ZM99.7883 60.1235C99.0583 60.1235 98.3993 59.9613 97.8112 59.6369C97.2333 59.3023 96.772 58.846 96.4273 58.2681C96.0927 57.6902 95.9254 57.0413 95.9254 56.3214C95.9254 55.6016 96.0927 54.9577 96.4273 54.39C96.7619 53.812 97.213 53.3558 97.7808 53.0212C98.3587 52.6866 98.9975 52.5193 99.6971 52.5193C100.376 52.5193 100.975 52.6765 101.492 52.9908C102.019 53.3051 102.43 53.736 102.724 54.2835C103.028 54.831 103.18 55.4545 103.18 56.1541C103.18 56.2758 103.17 56.4025 103.149 56.5343C103.139 56.656 103.119 56.7929 103.089 56.945L97.0964 56.945V55.5762L102.222 55.5762L101.598 56.1237C101.578 55.6776 101.492 55.3025 101.34 54.9983C101.187 54.6941 100.97 54.4609 100.686 54.2987C100.412 54.1365 100.072 54.0554 99.6667 54.0554C99.2408 54.0554 98.8708 54.1466 98.5564 54.3291C98.2421 54.5116 97.9988 54.7702 97.8264 55.1048C97.6541 55.4292 97.5679 55.8195 97.5679 56.2758C97.5679 56.732 97.6591 57.1325 97.8416 57.4773C98.0242 57.822 98.2827 58.0907 98.6173 58.2833C98.9519 58.4658 99.3371 58.5571 99.7731 58.5571C100.148 58.5571 100.493 58.4912 100.807 58.3593C101.132 58.2275 101.405 58.0349 101.629 57.7814L102.693 58.8612C102.338 59.2769 101.907 59.5912 101.4 59.8041C100.893 60.0171 100.356 60.1235 99.7883 60.1235ZM107.882 60.1235C107.162 60.1235 106.508 59.9562 105.92 59.6216C105.342 59.2871 104.886 58.8308 104.551 58.2529C104.217 57.675 104.049 57.0311 104.049 56.3214C104.049 55.6016 104.217 54.9577 104.551 54.39C104.886 53.812 105.342 53.3558 105.92 53.0212C106.508 52.6866 107.162 52.5193 107.882 52.5193C108.45 52.5193 108.977 52.6309 109.464 52.8539C109.96 53.0668 110.381 53.3761 110.726 53.7816L109.631 54.8918C109.418 54.6384 109.159 54.4508 108.855 54.3291C108.561 54.1973 108.237 54.1314 107.882 54.1314C107.466 54.1314 107.096 54.2277 106.772 54.4204C106.457 54.6029 106.209 54.8563 106.026 55.1808C105.854 55.5052 105.768 55.8854 105.768 56.3214C105.768 56.7473 105.854 57.1275 106.026 57.4621C106.209 57.7865 106.457 58.045 106.772 58.2377C107.096 58.4202 107.466 58.5114 107.882 58.5114C108.237 58.5114 108.561 58.4506 108.855 58.3289C109.159 58.1971 109.418 58.0045 109.631 57.751L110.726 58.8612C110.381 59.2668 109.96 59.5811 109.464 59.8041C108.977 60.0171 108.45 60.1235 107.882 60.1235ZM111.932 59.9714V52.6714H113.605V59.9714H111.932ZM113.605 55.9108L113.027 55.6218C113.027 54.6992 113.23 53.954 113.635 53.3862C114.051 52.8083 114.675 52.5193 115.506 52.5193C115.871 52.5193 116.2 52.5852 116.495 52.717C116.789 52.8488 117.062 53.0618 117.316 53.3558L116.221 54.4812C116.089 54.3393 115.942 54.2379 115.78 54.177C115.617 54.1162 115.43 54.0858 115.217 54.0858C114.751 54.0858 114.365 54.2328 114.061 54.5268C113.757 54.8209 113.605 55.2822 113.605 55.9108ZM121.294 60.1235C120.564 60.1235 119.905 59.9613 119.317 59.6369C118.739 59.3023 118.278 58.846 117.933 58.2681C117.598 57.6902 117.431 57.0413 117.431 56.3214C117.431 55.6016 117.598 54.9577 117.933 54.39C118.267 53.812 118.719 53.3558 119.286 53.0212C119.864 52.6866 120.503 52.5193 121.203 52.5193C121.882 52.5193 122.48 52.6765 122.997 52.9908C123.525 53.3051 123.935 53.736 124.229 54.2835C124.533 54.831 124.685 55.4545 124.685 56.1541C124.685 56.2758 124.675 56.4025 124.655 56.5343C124.645 56.656 124.625 56.7929 124.594 56.945H118.602V55.5762H123.727L123.104 56.1237C123.083 55.6776 122.997 55.3025 122.845 54.9983C122.693 54.6941 122.475 54.4609 122.191 54.2987C121.917 54.1365 121.578 54.0554 121.172 54.0554C120.746 54.0554 120.376 54.1466 120.062 54.3291C119.748 54.5116 119.504 54.7702 119.332 55.1048C119.16 55.4292 119.074 55.8195 119.074 56.2758C119.074 56.732 119.165 57.1325 119.347 57.4773C119.53 57.822 119.788 58.0907 120.123 58.2833C120.457 58.4658 120.843 58.5571 121.279 58.5571C121.654 58.5571 121.999 58.4912 122.313 58.3593C122.637 58.2275 122.911 58.0349 123.134 57.7814L124.199 58.8612C123.844 59.2769 123.413 59.5912 122.906 59.8041C122.399 60.0171 121.862 60.1235 121.294 60.1235ZM129.083 60.1235C128.424 60.1235 127.826 59.9562 127.289 59.6216C126.762 59.2871 126.341 58.8359 126.026 58.2681C125.722 57.6902 125.57 57.0464 125.57 56.3366C125.57 55.6168 125.722 54.9729 126.026 54.4052C126.341 53.8272 126.762 53.371 127.289 53.0364C127.826 52.6917 128.424 52.5193 129.083 52.5193C129.641 52.5193 130.133 52.641 130.559 52.8843C130.995 53.1175 131.339 53.442 131.593 53.8577C131.846 54.2734 131.973 54.7448 131.973 55.272V57.3708C131.973 57.898 131.846 58.3695 131.593 58.7852C131.349 59.2009 131.01 59.5304 130.574 59.7737C130.138 60.0069 129.641 60.1235 129.083 60.1235ZM129.357 58.5418C129.976 58.5418 130.472 58.334 130.848 57.9183C131.233 57.5026 131.425 56.9703 131.425 56.3214C131.425 55.8854 131.339 55.5002 131.167 55.1656C130.995 54.831 130.751 54.5725 130.437 54.39C130.133 54.1973 129.773 54.101 129.357 54.101C128.952 54.101 128.592 54.1973 128.277 54.39C127.973 54.5725 127.73 54.831 127.547 55.1656C127.375 55.5002 127.289 55.8854 127.289 56.3214C127.289 56.7574 127.375 57.1427 127.547 57.4773C127.73 57.8118 127.973 58.0755 128.277 58.2681C128.592 58.4506 128.952 58.5418 129.357 58.5418ZM131.319 59.9714V58.0096L131.608 56.2302L131.319 54.466V52.6714H132.992V59.9714H131.319ZM137.236 60.1235C136.831 60.1235 136.44 60.0728 136.065 59.9714C135.69 59.8599 135.345 59.7078 135.031 59.5152C134.717 59.3124 134.443 59.0691 134.21 58.7852L135.274 57.7206C135.528 58.0146 135.817 58.2377 136.141 58.3898C136.476 58.5317 136.851 58.6027 137.267 58.6027C137.642 58.6027 137.926 58.5469 138.118 58.4354C138.311 58.3239 138.407 58.1616 138.407 57.9487C138.407 57.7257 138.316 57.5533 138.134 57.4316C137.951 57.31 137.713 57.2086 137.419 57.1275C137.135 57.0362 136.831 56.945 136.506 56.8537C136.192 56.7625 135.888 56.6408 135.594 56.4887C135.31 56.3265 135.077 56.1085 134.894 55.8348C134.712 55.561 134.62 55.2061 134.62 54.7702C134.62 54.3038 134.727 53.9033 134.94 53.5687C135.163 53.2341 135.472 52.9756 135.867 52.7931C136.273 52.6106 136.755 52.5193 137.312 52.5193C137.9 52.5193 138.417 52.6258 138.864 52.8387C139.32 53.0415 139.7 53.3507 140.004 53.7664L138.94 54.831C138.727 54.5674 138.483 54.3697 138.21 54.2379C137.936 54.1061 137.622 54.0402 137.267 54.0402C136.932 54.0402 136.674 54.0909 136.491 54.1922C136.309 54.2936 136.217 54.4407 136.217 54.6333C136.217 54.8361 136.309 54.9932 136.491 55.1048C136.674 55.2163 136.907 55.3126 137.191 55.3937C137.485 55.4748 137.789 55.5661 138.103 55.6675C138.428 55.7587 138.732 55.8905 139.016 56.0629C139.31 56.2251 139.548 56.4482 139.73 56.732C139.913 57.0058 140.004 57.3657 140.004 57.8118C140.004 58.5216 139.756 59.0843 139.259 59.5C138.762 59.9157 138.088 60.1235 137.236 60.1235ZM144.775 60.1235C144.045 60.1235 143.386 59.9613 142.798 59.6369C142.22 59.3023 141.759 58.846 141.414 58.2681C141.079 57.6902 140.912 57.0413 140.912 56.3214C140.912 55.6016 141.079 54.9577 141.414 54.39C141.748 53.812 142.2 53.3558 142.767 53.0212C143.345 52.6866 143.984 52.5193 144.684 52.5193C145.363 52.5193 145.961 52.6765 146.478 52.9908C147.005 53.3051 147.416 53.736 147.71 54.2835C148.014 54.831 148.166 55.4545 148.166 56.1541C148.166 56.2758 148.156 56.4025 148.136 56.5343C148.126 56.656 148.105 56.7929 148.075 56.945H142.083V55.5762H147.208L146.585 56.1237C146.564 55.6776 146.478 55.3025 146.326 54.9983C146.174 54.6941 145.956 54.4609 145.672 54.2987C145.398 54.1365 145.059 54.0554 144.653 54.0554C144.227 54.0554 143.857 54.1466 143.543 54.3291C143.229 54.5116 142.985 54.7702 142.813 55.1048C142.641 55.4292 142.554 55.8195 142.554 56.2758C142.554 56.732 142.646 57.1325 142.828 57.4773C143.011 57.822 143.269 58.0907 143.604 58.2833C143.938 58.4658 144.324 58.5571 144.76 58.5571C145.135 58.5571 145.48 58.4912 145.794 58.3593C146.118 58.2275 146.392 58.0349 146.615 57.7814L147.68 58.8612C147.325 59.2769 146.894 59.5912 146.387 59.8041C145.88 60.0171 145.343 60.1235 144.775 60.1235Z" fill="#161A30"/>
<path d="M98.9295 45.9196C97.3827 45.9196 95.9766 45.5564 94.7111 44.8299C93.4691 44.08 92.4731 43.084 91.7231 41.8419C90.9966 40.5999 90.6334 39.2172 90.6334 37.6939C90.6334 35.6316 91.3482 33.6162 92.7777 31.6476L100.371 21.383H103.394L95.8712 31.3312L94.9572 31.6828C95.2853 31.2609 95.6603 30.9094 96.0821 30.6282C96.5274 30.3235 97.0312 30.0892 97.5937 29.9251C98.1561 29.7611 98.8006 29.679 99.5271 29.679C100.957 29.679 102.257 30.0306 103.429 30.7336C104.601 31.4133 105.538 32.3507 106.241 33.5459C106.944 34.7411 107.296 36.1003 107.296 37.6236C107.296 39.1469 106.921 40.5413 106.171 41.8068C105.421 43.0488 104.413 44.0448 103.148 44.7948C101.882 45.5447 100.476 45.9196 98.9295 45.9196ZM98.9646 43.5293C100.019 43.5293 100.98 43.2715 101.847 42.7559C102.738 42.2169 103.441 41.5021 103.956 40.6116C104.472 39.6976 104.73 38.7016 104.73 37.6236C104.73 36.5221 104.472 35.5261 103.956 34.6356C103.441 33.7451 102.738 33.042 101.847 32.5264C100.98 31.9874 100.019 31.7179 98.9646 31.7179C97.8866 31.7179 96.9023 31.9874 96.0118 32.5264C95.1447 33.042 94.4533 33.7451 93.9378 34.6356C93.4456 35.5027 93.1996 36.4987 93.1996 37.6236C93.1996 38.725 93.4456 39.7328 93.9378 40.6467C94.4533 41.5373 95.1447 42.2403 96.0118 42.7559C96.9023 43.2715 97.8866 43.5293 98.9646 43.5293ZM113.003 45.5681L122.283 22.8243L124.779 23L115.674 45.5681H113.003ZM108.819 23.6679V21.383L124.779 21.383V23L123.654 23.6679L108.819 23.6679ZM128.727 45.5681L144.265 21.383H146.796L131.293 45.5681H128.727ZM142.402 45.9196C141.511 45.9196 140.691 45.7087 139.941 45.2869C139.191 44.8416 138.593 44.244 138.148 43.4941C137.703 42.7442 137.48 41.9122 137.48 40.9983C137.48 40.0843 137.703 39.264 138.148 38.5376C138.593 37.8111 139.179 37.2369 139.906 36.8151C140.656 36.3698 141.488 36.1472 142.402 36.1472C143.316 36.1472 144.136 36.3698 144.862 36.8151C145.612 37.2369 146.21 37.8111 146.655 38.5376C147.1 39.264 147.323 40.0843 147.323 40.9983C147.323 41.9122 147.1 42.7442 146.655 43.4941C146.233 44.244 145.647 44.8416 144.898 45.2869C144.148 45.7087 143.316 45.9196 142.402 45.9196ZM142.367 43.9159C143.21 43.9159 143.902 43.6464 144.441 43.1074C144.98 42.5684 145.249 41.8654 145.249 40.9983C145.249 40.1546 144.968 39.475 144.405 38.9594C143.843 38.4204 143.163 38.1509 142.367 38.1509C141.593 38.1509 140.937 38.4204 140.398 38.9594C139.859 39.475 139.589 40.1546 139.589 40.9983C139.589 41.8654 139.859 42.5684 140.398 43.1074C140.937 43.6464 141.593 43.9159 142.367 43.9159ZM133.121 30.8039C132.231 30.8039 131.411 30.593 130.661 30.1712C129.911 29.7259 129.313 29.14 128.868 28.4135C128.423 27.6636 128.2 26.8317 128.2 25.9177C128.2 25.0037 128.423 24.1835 128.868 23.457C129.313 22.7071 129.899 22.1212 130.625 21.6994C131.375 21.2541 132.207 21.0315 133.121 21.0315C134.035 21.0315 134.856 21.2541 135.582 21.6994C136.332 22.1212 136.93 22.7071 137.375 23.457C137.82 24.1835 138.043 25.0037 138.043 25.9177C138.043 26.8317 137.82 27.6636 137.375 28.4135C136.953 29.14 136.367 29.7259 135.617 30.1712C134.867 30.593 134.035 30.8039 133.121 30.8039ZM133.086 28.8002C133.93 28.8002 134.609 28.5307 135.125 27.9917C135.664 27.4527 135.934 26.7496 135.934 25.8825C135.934 25.0389 135.652 24.3593 135.09 23.8437C134.551 23.3047 133.883 23.0352 133.086 23.0352C132.313 23.0352 131.657 23.3047 131.118 23.8437C130.579 24.3593 130.309 25.0389 130.309 25.8825C130.309 26.7496 130.579 27.4527 131.118 27.9917C131.657 28.5307 132.313 28.8002 133.086 28.8002Z" fill="#161A30"/>
</svg>
