<svg width="200" height="142" viewBox="0 0 200 142" fill="none" xmlns="http://www.w3.org/2000/svg">
<line x1="26.3018" y1="11.5891" x2="26.3018" y2="122.624" stroke="black"/>
<line x1="25.8018" y1="122.124" x2="185.897" y2="122.124" stroke="black"/>
<path d="M17.1641 86.2017L16.3769 86.2017L16.3769 83.8633C16.3769 83.2382 16.2418 82.6864 15.9717 82.2079C15.6939 81.7294 15.3157 81.3551 14.8372 81.085C14.3511 80.8149 13.7954 80.6799 13.1703 80.6799C12.5452 80.6799 11.9934 80.8149 11.5149 81.085C11.0364 81.3551 10.6621 81.7294 10.392 82.2079C10.1142 82.6864 9.97526 83.2382 9.97526 83.8633L9.97526 86.1785L9.19965 86.1785L9.19965 83.8401C9.19965 83.2613 9.29998 82.7288 9.50063 82.2426C9.69357 81.7487 9.9714 81.3204 10.3341 80.9577C10.6891 80.5872 11.1097 80.3017 11.5959 80.101C12.0744 79.9004 12.603 79.8001 13.1819 79.8001C13.7452 79.8001 14.27 79.9004 14.7562 80.101C15.2424 80.3017 15.6669 80.5834 16.0296 80.9461C16.3846 81.3088 16.6624 81.7371 16.8631 82.2311C17.0637 82.7173 17.1641 83.2459 17.1641 83.817L17.1641 86.2017ZM17.1641 86.7226L9.19965 86.7226L9.19965 85.8776L17.1641 85.8776L17.1641 86.7226ZM17.1641 78.1648L9.19965 78.1648L9.19965 77.3198L17.1641 77.3198L17.1641 78.1648ZM17.1641 72.944L9.19965 72.944L9.19965 72.0989L17.1641 72.0989L17.1641 72.944ZM13.4365 77.6092L12.6609 77.6092L12.6609 72.7125L13.4365 72.7125L13.4365 77.6092ZM17.1641 70.0593L9.19965 70.0593L9.19965 69.2142L17.1641 69.2142L17.1641 70.0593ZM17.1641 69.5036L16.3885 69.5036L16.3885 64.8152L17.1641 64.8152L17.1641 69.5036ZM13.4597 69.5036L12.7072 69.5036L12.7072 65.1857L13.4597 65.1857L13.4597 69.5036ZM9.97526 69.5036L9.19965 69.5036L9.19965 64.8847L9.97525 64.8847L9.97526 69.5036ZM17.1641 63.8328L9.19965 60.5683L9.19965 59.9316L17.1641 56.7019L17.1641 57.6164L10.1257 60.4294L10.1257 60.0937L17.1641 62.9299L17.1641 63.8328ZM15.0919 62.3395L14.3395 62.3395L14.3395 58.1721L15.0919 58.1721L15.0919 62.3395ZM14.6173 55.9667L13.8417 55.9667L13.8417 52.2739L14.6173 52.2739L14.6173 55.9667ZM17.2798 48.6415C17.2798 49.2589 17.1641 49.7914 16.9325 50.239C16.6933 50.6866 16.3614 51.0802 15.937 51.4198L15.3582 50.8294C15.7363 50.5593 16.018 50.2467 16.2032 49.8917C16.3885 49.529 16.4811 49.1007 16.4811 48.6068C16.4811 48.0974 16.3653 47.6846 16.1338 47.3681C15.9023 47.0517 15.582 46.8935 15.173 46.8935C14.8565 46.8935 14.598 46.9668 14.3974 47.1135C14.189 47.2601 14.0231 47.453 13.8996 47.6923C13.7684 47.9238 13.6526 48.1823 13.5523 48.4679C13.452 48.7534 13.3478 49.039 13.2397 49.3245C13.124 49.6023 12.9812 49.8609 12.8114 50.1001C12.6416 50.3394 12.4255 50.5323 12.1632 50.6789C11.9008 50.8178 11.565 50.8873 11.156 50.8873C10.7238 50.8873 10.3534 50.7831 10.0447 50.5747C9.73601 50.3664 9.50063 50.0808 9.33856 49.7181C9.16878 49.3554 9.08389 48.9425 9.08389 48.4795C9.08389 47.9624 9.18422 47.5032 9.38487 47.1019C9.58552 46.6929 9.85563 46.3533 10.1952 46.0832L10.774 46.662C10.4807 46.909 10.2569 47.1791 10.1026 47.4723C9.94824 47.7656 9.87107 48.109 9.87107 48.5026C9.87107 48.9657 9.97911 49.3361 10.1952 49.6139C10.4113 49.8917 10.7123 50.0307 11.0981 50.0307C11.3991 50.0307 11.6422 49.9612 11.8274 49.8223C12.0127 49.6757 12.167 49.4827 12.2905 49.2435C12.414 49.0042 12.5259 48.7457 12.6262 48.4679C12.7188 48.1823 12.823 47.8968 12.9388 47.6112C13.0545 47.3257 13.2011 47.0672 13.3786 46.8356C13.5562 46.5964 13.7838 46.4035 14.0616 46.2568C14.3318 46.1102 14.679 46.0369 15.1035 46.0369C15.7904 46.0369 16.3267 46.2723 16.7126 46.743C17.0907 47.2061 17.2798 47.8389 17.2798 48.6415Z" fill="#161A30"/>
<path d="M2.09568 137.902L0.00039625 132.461H0.845457L2.50085 136.976L2.19987 136.988L3.84369 132.461H4.31831L5.96213 136.988L5.66115 136.976L7.30496 132.461H8.1616L6.05474 137.902H5.58011L3.90157 133.445H4.24885L2.58188 137.902H2.09568ZM11.5473 138.018C10.9993 138.018 10.5093 137.894 10.0771 137.647C9.64492 137.4 9.30149 137.061 9.04681 136.629C8.79986 136.197 8.67638 135.71 8.67638 135.17C8.67638 134.638 8.79986 134.159 9.04681 133.735C9.29377 133.302 9.62948 132.963 10.0539 132.716C10.4784 132.469 10.953 132.346 11.4778 132.346C11.9717 132.346 12.4078 132.457 12.7859 132.681C13.1718 132.905 13.4728 133.218 13.6889 133.619C13.9127 134.013 14.0246 134.468 14.0246 134.985C14.0246 135.047 14.0207 135.12 14.013 135.205C14.0053 135.282 13.9898 135.375 13.9667 135.483H9.25519V134.788H13.5268L13.2374 135.043C13.2451 134.641 13.1757 134.298 13.029 134.013C12.8901 133.719 12.6856 133.495 12.4155 133.341C12.1531 133.179 11.8328 133.098 11.4547 133.098C11.0611 133.098 10.7176 133.183 10.4244 133.353C10.1311 133.522 9.89959 133.762 9.72981 134.07C9.56774 134.371 9.48671 134.73 9.48671 135.147C9.48671 135.564 9.5716 135.93 9.74139 136.247C9.91889 136.563 10.162 136.81 10.4707 136.988C10.7871 137.165 11.1498 137.254 11.5588 137.254C11.8907 137.254 12.1955 137.196 12.4734 137.08C12.7512 136.957 12.9866 136.775 13.1795 136.536L13.7004 137.069C13.4458 137.37 13.1293 137.605 12.7512 137.775C12.3808 137.937 11.9794 138.018 11.5473 138.018ZM17.7762 138.018C17.2283 138.018 16.7382 137.894 16.3061 137.647C15.8739 137.4 15.5305 137.061 15.2758 136.629C15.0288 136.197 14.9054 135.71 14.9054 135.17C14.9054 134.638 15.0288 134.159 15.2758 133.735C15.5228 133.302 15.8585 132.963 16.2829 132.716C16.7074 132.469 17.182 132.346 17.7068 132.346C18.2007 132.346 18.6367 132.457 19.0149 132.681C19.4008 132.905 19.7017 133.218 19.9178 133.619C20.1416 134.013 20.2535 134.468 20.2535 134.985C20.2535 135.047 20.2497 135.12 20.242 135.205C20.2343 135.282 20.2188 135.375 20.1957 135.483H15.4842V134.788H19.7558L19.4664 135.043C19.4741 134.641 19.4046 134.298 19.258 134.013C19.1191 133.719 18.9146 133.495 18.6445 133.341C18.3821 133.179 18.0618 133.098 17.6836 133.098C17.29 133.098 16.9466 133.183 16.6534 133.353C16.3601 133.522 16.1286 133.762 15.9588 134.07C15.7967 134.371 15.7157 134.73 15.7157 135.147C15.7157 135.564 15.8006 135.93 15.9704 136.247C16.1479 136.563 16.391 136.81 16.6997 136.988C17.0161 137.165 17.3788 137.254 17.7878 137.254C18.1197 137.254 18.4245 137.196 18.7023 137.08C18.9802 136.957 19.2156 136.775 19.4085 136.536L19.9294 137.069C19.6747 137.37 19.3583 137.605 18.9802 137.775C18.6097 137.937 18.2084 138.018 17.7762 138.018ZM25.0008 137.902L22.2225 135.112L24.9545 132.461H25.9616L22.9865 135.321L23.0212 134.858L26.0774 137.902H25.0008ZM21.4932 137.902L21.4932 129.706H22.3035L22.3035 137.902H21.4932ZM28.4395 138.018C28.1463 138.018 27.8646 137.979 27.5945 137.902C27.3244 137.817 27.0774 137.701 26.8536 137.555C26.6375 137.408 26.4484 137.235 26.2864 137.034L26.8073 136.501C27.0234 136.764 27.2665 136.961 27.5366 137.092C27.8144 137.215 28.1231 137.277 28.4627 137.277C28.8254 137.277 29.1071 137.208 29.3077 137.069C29.5161 136.93 29.6203 136.737 29.6203 136.49C29.6203 136.258 29.547 136.077 29.4004 135.946C29.2537 135.815 29.0646 135.71 28.8331 135.633C28.6093 135.556 28.3701 135.483 28.1154 135.413C27.8607 135.336 27.6176 135.243 27.3861 135.135C27.1546 135.02 26.9655 134.861 26.8189 134.661C26.68 134.46 26.6105 134.198 26.6105 133.874C26.6105 133.565 26.6838 133.299 26.8304 133.075C26.9848 132.843 27.2009 132.666 27.4787 132.542C27.7643 132.411 28.1 132.346 28.4858 132.346C28.8949 132.346 29.2653 132.419 29.5971 132.565C29.929 132.712 30.1953 132.928 30.3959 133.214L29.875 133.735C29.7129 133.526 29.5084 133.368 29.2614 133.26C29.0222 133.144 28.7521 133.086 28.4511 133.086C28.1038 133.086 27.8376 133.156 27.6524 133.295C27.4748 133.426 27.3861 133.6 27.3861 133.816C27.3861 134.024 27.4594 134.19 27.606 134.313C27.7527 134.429 27.9379 134.526 28.1617 134.603C28.3932 134.672 28.6363 134.746 28.891 134.823C29.1457 134.892 29.3888 134.989 29.6203 135.112C29.8518 135.228 30.037 135.39 30.176 135.598C30.3226 135.799 30.3959 136.073 30.3959 136.42C30.3959 136.907 30.2184 137.296 29.8634 137.59C29.5161 137.875 29.0415 138.018 28.4395 138.018Z" fill="#161A30"/>
<path d="M112.988 138.018C112.471 138.018 112.011 137.918 111.61 137.717C111.217 137.516 110.908 137.242 110.684 136.895C110.46 136.54 110.348 136.139 110.348 135.691C110.348 135.336 110.418 135.012 110.557 134.719C110.703 134.418 110.908 134.163 111.17 133.955C111.433 133.739 111.738 133.592 112.085 133.515L112.177 133.758C111.869 133.673 111.606 133.538 111.39 133.353C111.174 133.167 111.008 132.947 110.892 132.693C110.777 132.43 110.719 132.156 110.719 131.871C110.719 131.462 110.815 131.107 111.008 130.806C111.209 130.497 111.479 130.254 111.819 130.077C112.166 129.899 112.556 129.81 112.988 129.81C113.428 129.81 113.817 129.899 114.157 130.077C114.504 130.254 114.774 130.497 114.967 130.806C115.16 131.107 115.257 131.462 115.257 131.871C115.257 132.156 115.199 132.43 115.083 132.693C114.975 132.947 114.813 133.167 114.597 133.353C114.381 133.538 114.114 133.673 113.798 133.758L113.891 133.515C114.246 133.592 114.551 133.739 114.805 133.955C115.068 134.163 115.268 134.418 115.407 134.719C115.554 135.012 115.627 135.336 115.627 135.691C115.627 136.139 115.515 136.54 115.291 136.895C115.075 137.242 114.767 137.516 114.365 137.717C113.972 137.918 113.513 138.018 112.988 138.018ZM112.988 137.254C113.343 137.254 113.655 137.184 113.925 137.045C114.203 136.907 114.419 136.714 114.574 136.467C114.728 136.212 114.805 135.926 114.805 135.61C114.805 135.286 114.728 135.004 114.574 134.765C114.419 134.518 114.203 134.325 113.925 134.186C113.655 134.04 113.343 133.966 112.988 133.966C112.64 133.966 112.328 134.04 112.05 134.186C111.78 134.325 111.564 134.518 111.402 134.765C111.247 135.004 111.17 135.286 111.17 135.61C111.17 135.926 111.247 136.212 111.402 136.467C111.564 136.714 111.78 136.907 112.05 137.045C112.32 137.184 112.633 137.254 112.988 137.254ZM112.988 133.306C113.42 133.306 113.771 133.179 114.041 132.924C114.319 132.662 114.458 132.326 114.458 131.917C114.458 131.508 114.319 131.176 114.041 130.922C113.771 130.667 113.42 130.54 112.988 130.54C112.563 130.54 112.212 130.667 111.934 130.922C111.656 131.176 111.518 131.508 111.518 131.917C111.518 132.326 111.656 132.662 111.934 132.924C112.212 133.179 112.563 133.306 112.988 133.306Z" fill="#161A30"/>
<path d="M50.0356 138.018C49.4491 138.018 48.9127 137.852 48.4265 137.52C47.9403 137.181 47.5506 136.702 47.2573 136.085C46.9718 135.467 46.829 134.742 46.829 133.908C46.829 133.067 46.9718 132.346 47.2573 131.744C47.5428 131.134 47.9249 130.663 48.4033 130.331C48.8895 129.992 49.4259 129.822 50.0124 129.822C50.6067 129.822 51.143 129.988 51.6215 130.32C52.1077 130.652 52.4936 131.126 52.7791 131.744C53.0647 132.353 53.2075 133.079 53.2075 133.92C53.2075 134.753 53.0647 135.479 52.7791 136.096C52.4936 136.714 52.1116 137.188 51.6331 137.52C51.1546 137.852 50.6221 138.018 50.0356 138.018ZM50.0124 137.219C50.4678 137.219 50.8691 137.092 51.2164 136.837C51.5714 136.575 51.8492 136.2 52.0498 135.714C52.2505 135.22 52.3508 134.618 52.3508 133.908C52.3508 133.206 52.2505 132.612 52.0498 132.126C51.8492 131.632 51.5714 131.257 51.2164 131.003C50.8691 130.748 50.4678 130.621 50.0124 130.621C49.5648 130.621 49.1635 130.748 48.8085 131.003C48.4612 131.257 48.1873 131.628 47.9866 132.114C47.7859 132.6 47.6856 133.198 47.6856 133.908C47.6856 134.618 47.7859 135.22 47.9866 135.714C48.1873 136.2 48.4612 136.575 48.8085 136.837C49.1635 137.092 49.5648 137.219 50.0124 137.219Z" fill="#161A30"/>
<path d="M172.821 137.902L172.821 129.938H173.654V137.902H172.821ZM171.142 130.69V129.938H173.539V130.69H171.142ZM177.902 138.018C177.392 138.018 176.929 137.898 176.512 137.659C176.103 137.412 175.775 137.084 175.528 136.675C175.289 136.266 175.17 135.811 175.17 135.309C175.17 134.63 175.405 133.966 175.876 133.318L178.376 129.938H179.372L176.894 133.214L176.593 133.33C176.702 133.191 176.825 133.075 176.964 132.982C177.111 132.882 177.276 132.805 177.462 132.751C177.647 132.697 177.859 132.67 178.098 132.67C178.569 132.67 178.997 132.785 179.383 133.017C179.769 133.241 180.078 133.549 180.309 133.943C180.541 134.337 180.657 134.784 180.657 135.286C180.657 135.788 180.533 136.247 180.286 136.663C180.039 137.072 179.707 137.4 179.291 137.647C178.874 137.894 178.411 138.018 177.902 138.018ZM177.913 137.231C178.26 137.231 178.577 137.146 178.862 136.976C179.156 136.799 179.387 136.563 179.557 136.27C179.727 135.969 179.812 135.641 179.812 135.286C179.812 134.923 179.727 134.595 179.557 134.302C179.387 134.009 179.156 133.777 178.862 133.607C178.577 133.43 178.26 133.341 177.913 133.341C177.558 133.341 177.234 133.43 176.941 133.607C176.655 133.777 176.428 134.009 176.258 134.302C176.096 134.587 176.015 134.915 176.015 135.286C176.015 135.649 176.096 135.98 176.258 136.281C176.428 136.575 176.655 136.806 176.941 136.976C177.234 137.146 177.558 137.231 177.913 137.231Z" fill="#161A30"/>
<path d="M47.3529 109.013C47.3529 110.486 48.5468 111.68 50.0195 111.68C51.4923 111.68 52.6862 110.486 52.6862 109.013C52.6862 107.541 51.4923 106.347 50.0195 106.347C48.5468 106.347 47.3529 107.541 47.3529 109.013ZM181.19 16.0462C181.318 15.8013 181.223 15.4994 180.978 15.3718L176.987 13.2935C176.742 13.166 176.44 13.2611 176.312 13.5061C176.185 13.751 176.28 14.0529 176.525 14.1805L180.073 16.0279L178.225 19.5757C178.098 19.8206 178.193 20.1226 178.438 20.2501C178.683 20.3776 178.985 20.2825 179.112 20.0375L181.19 16.0462ZM50.0195 109.013L50.0849 109.509C59.489 108.27 68.6844 102.93 78.0803 95.4014C87.4786 87.8709 97.1398 78.0975 107.457 67.9281C128.121 47.5609 151.457 25.5709 180.897 16.2922L180.747 15.8153L180.597 15.3384C150.896 24.6994 127.403 46.8654 106.755 67.2159C96.4174 77.4054 86.8025 87.1312 77.455 94.621C68.1049 102.113 59.0847 107.314 49.9542 108.518L50.0195 109.013Z" fill="#00B1FF"/>
<path d="M45.8308 59.9714V49.3256H47.5798V59.9714H45.8308ZM54.6609 59.9714V55.7587C54.6609 55.272 54.5037 54.8716 54.1894 54.5572C53.8852 54.2429 53.4898 54.0858 53.0031 54.0858C52.6787 54.0858 52.3897 54.1568 52.1363 54.2987C51.8828 54.4407 51.6851 54.6384 51.5431 54.8918C51.4012 55.1453 51.3302 55.4343 51.3302 55.7587L50.6763 55.3937C50.6763 54.8361 50.7979 54.3443 51.0413 53.9185C51.2846 53.4825 51.6192 53.1429 52.045 52.8995C52.481 52.6461 52.9677 52.5193 53.505 52.5193C54.0525 52.5193 54.5392 52.6613 54.965 52.9452C55.3909 53.2189 55.7254 53.5788 55.9688 54.025C56.2121 54.4609 56.3338 54.9172 56.3338 55.3937V59.9714H54.6609ZM49.6573 59.9714V52.6714H51.3302V59.9714H49.6573ZM61.3948 60.1235C60.675 60.1235 60.021 59.9562 59.433 59.6216C58.855 59.2871 58.3988 58.8308 58.0642 58.2529C57.7296 57.675 57.5623 57.0311 57.5623 56.3214C57.5623 55.6016 57.7296 54.9577 58.0642 54.39C58.3988 53.812 58.855 53.3558 59.433 53.0212C60.021 52.6866 60.675 52.5193 61.3948 52.5193C61.9626 52.5193 62.4898 52.6309 62.9765 52.8539C63.4733 53.0668 63.8941 53.3761 64.2388 53.7816L63.1438 54.8918C62.9309 54.6384 62.6723 54.4508 62.3682 54.3291C62.0742 54.1973 61.7497 54.1314 61.3948 54.1314C60.9791 54.1314 60.6091 54.2277 60.2846 54.4204C59.9703 54.6029 59.7219 54.8563 59.5394 55.1808C59.3671 55.5052 59.2809 55.8854 59.2809 56.3214C59.2809 56.7473 59.3671 57.1275 59.5394 57.4621C59.7219 57.7865 59.9703 58.045 60.2846 58.2377C60.6091 58.4202 60.9791 58.5114 61.3948 58.5114C61.7497 58.5114 62.0742 58.4506 62.3682 58.3289C62.6723 58.1971 62.9309 58.0045 63.1438 57.751L64.2388 58.8612C63.8941 59.2668 63.4733 59.5811 62.9765 59.8041C62.4898 60.0171 61.9626 60.1235 61.3948 60.1235ZM65.4449 59.9714V52.6714H67.1178V59.9714H65.4449ZM67.1178 55.9108L66.5399 55.6218C66.5399 54.6992 66.7427 53.954 67.1482 53.3862C67.5639 52.8083 68.1875 52.5193 69.0189 52.5193C69.3839 52.5193 69.7134 52.5852 70.0074 52.717C70.3015 52.8488 70.5752 53.0618 70.8287 53.3558L69.7337 54.4812C69.6019 54.3393 69.4549 54.2379 69.2926 54.177C69.1304 54.1162 68.9428 54.0858 68.7299 54.0858C68.2635 54.0858 67.8783 54.2328 67.5741 54.5268C67.2699 54.8209 67.1178 55.2822 67.1178 55.9108ZM74.8069 60.1235C74.0769 60.1235 73.4178 59.9613 72.8298 59.6369C72.2519 59.3023 71.7905 58.846 71.4458 58.2681C71.1112 57.6902 70.9439 57.0413 70.9439 56.3214C70.9439 55.6016 71.1112 54.9577 71.4458 54.39C71.7804 53.812 72.2316 53.3558 72.7994 53.0212C73.3773 52.6866 74.016 52.5193 74.7156 52.5193C75.3949 52.5193 75.9931 52.6765 76.5102 52.9908C77.0374 53.3051 77.4481 53.736 77.7421 54.2835C78.0462 54.831 78.1983 55.4545 78.1983 56.1541C78.1983 56.2758 78.1882 56.4025 78.1679 56.5343C78.1578 56.656 78.1375 56.7929 78.1071 56.945H72.115V55.5762H77.2402L76.6167 56.1237C76.5964 55.6776 76.5102 55.3025 76.3581 54.9983C76.206 54.6941 75.988 54.4609 75.7042 54.2987C75.4304 54.1365 75.0908 54.0554 74.6852 54.0554C74.2594 54.0554 73.8893 54.1466 73.575 54.3291C73.2607 54.5116 73.0173 54.7702 72.845 55.1048C72.6726 55.4292 72.5864 55.8195 72.5864 56.2758C72.5864 56.732 72.6777 57.1325 72.8602 57.4773C73.0427 57.822 73.3012 58.0907 73.6358 58.2833C73.9704 58.4658 74.3557 58.5571 74.7917 58.5571C75.1668 58.5571 75.5115 58.4912 75.8258 58.3593C76.1503 58.2275 76.424 58.0349 76.6471 57.7814L77.7117 58.8612C77.3568 59.2769 76.9259 59.5912 76.419 59.8041C75.912 60.0171 75.3746 60.1235 74.8069 60.1235ZM82.5963 60.1235C81.9373 60.1235 81.3391 59.9562 80.8017 59.6216C80.2745 59.2871 79.8537 58.8359 79.5394 58.2681C79.2352 57.6902 79.0832 57.0464 79.0832 56.3366C79.0832 55.6168 79.2352 54.9729 79.5394 54.4052C79.8537 53.8272 80.2745 53.371 80.8017 53.0364C81.3391 52.6917 81.9373 52.5193 82.5963 52.5193C83.1539 52.5193 83.6457 52.641 84.0715 52.8843C84.5075 53.1175 84.8522 53.442 85.1057 53.8577C85.3591 54.2734 85.4859 54.7448 85.4859 55.272V57.3708C85.4859 57.898 85.3591 58.3695 85.1057 58.7852C84.8623 59.2009 84.5227 59.5304 84.0867 59.7737C83.6507 60.0069 83.1539 60.1235 82.5963 60.1235ZM82.87 58.5418C83.4885 58.5418 83.9853 58.334 84.3605 57.9183C84.7457 57.5026 84.9384 56.9703 84.9384 56.3214C84.9384 55.8854 84.8522 55.5002 84.6798 55.1656C84.5075 54.831 84.2641 54.5725 83.9498 54.39C83.6457 54.1973 83.2857 54.101 82.87 54.101C82.4645 54.101 82.1046 54.1973 81.7902 54.39C81.4861 54.5725 81.2427 54.831 81.0602 55.1656C80.8879 55.5002 80.8017 55.8854 80.8017 56.3214C80.8017 56.7574 80.8879 57.1427 81.0602 57.4773C81.2427 57.8118 81.4861 58.0755 81.7902 58.2681C82.1046 58.4506 82.4645 58.5418 82.87 58.5418ZM84.8319 59.9714V58.0096L85.1209 56.2302L84.8319 54.466V52.6714H86.5048V59.9714H84.8319ZM90.7492 60.1235C90.3436 60.1235 89.9533 60.0728 89.5781 59.9714C89.203 59.8599 88.8583 59.7078 88.544 59.5152C88.2297 59.3124 87.9559 59.0691 87.7227 58.7852L88.7873 57.7206C89.0408 58.0146 89.3297 58.2377 89.6542 58.3898C89.9888 58.5317 90.3639 58.6027 90.7796 58.6027C91.1547 58.6027 91.4386 58.5469 91.6313 58.4354C91.8239 58.3239 91.9202 58.1616 91.9202 57.9487C91.9202 57.7257 91.829 57.5533 91.6465 57.4316C91.464 57.31 91.2257 57.2086 90.9317 57.1275C90.6478 57.0362 90.3436 56.945 90.0192 56.8537C89.7049 56.7625 89.4007 56.6408 89.1067 56.4887C88.8228 56.3265 88.5896 56.1085 88.4071 55.8348C88.2246 55.561 88.1333 55.2061 88.1333 54.7702C88.1333 54.3038 88.2398 53.9033 88.4527 53.5687C88.6758 53.2341 88.985 52.9756 89.3804 52.7931C89.786 52.6106 90.2676 52.5193 90.8252 52.5193C91.4133 52.5193 91.9304 52.6258 92.3765 52.8387C92.8327 53.0415 93.2129 53.3507 93.5171 53.7664L92.4525 54.831C92.2396 54.5674 91.9963 54.3697 91.7225 54.2379C91.4488 54.1061 91.1345 54.0402 90.7796 54.0402C90.445 54.0402 90.1865 54.0909 90.004 54.1922C89.8215 54.2936 89.7302 54.4407 89.7302 54.6333C89.7302 54.8361 89.8215 54.9932 90.004 55.1048C90.1865 55.2163 90.4197 55.3126 90.7036 55.3937C90.9976 55.4748 91.3017 55.5661 91.6161 55.6675C91.9405 55.7587 92.2447 55.8905 92.5286 56.0629C92.8226 56.2251 93.0609 56.4482 93.2434 56.732C93.4259 57.0058 93.5171 57.3657 93.5171 57.8118C93.5171 58.5216 93.2687 59.0843 92.7719 59.5C92.2751 59.9157 91.6008 60.1235 90.7492 60.1235ZM98.2878 60.1235C97.5578 60.1235 96.8988 59.9613 96.3107 59.6369C95.7328 59.3023 95.2715 58.846 94.9267 58.2681C94.5921 57.6902 94.4249 57.0413 94.4249 56.3214C94.4249 55.6016 94.5921 54.9577 94.9267 54.39C95.2613 53.812 95.7125 53.3558 96.2803 53.0212C96.8582 52.6866 97.4969 52.5193 98.1965 52.5193C98.8758 52.5193 99.474 52.6765 99.9911 52.9908C100.518 53.3051 100.929 53.736 101.223 54.2835C101.527 54.831 101.679 55.4545 101.679 56.1541C101.679 56.2758 101.669 56.4025 101.649 56.5343C101.639 56.656 101.618 56.7929 101.588 56.945H95.5959V55.5762H100.721L100.098 56.1237C100.077 55.6776 99.9911 55.3025 99.839 54.9983C99.687 54.6941 99.469 54.4609 99.1851 54.2987C98.9113 54.1365 98.5717 54.0554 98.1661 54.0554C97.7403 54.0554 97.3702 54.1466 97.0559 54.3291C96.7416 54.5116 96.4983 54.7702 96.3259 55.1048C96.1535 55.4292 96.0674 55.8195 96.0674 56.2758C96.0674 56.732 96.1586 57.1325 96.3411 57.4773C96.5236 57.822 96.7822 58.0907 97.1167 58.2833C97.4513 58.4658 97.8366 58.5571 98.2726 58.5571C98.6477 58.5571 98.9924 58.4912 99.3067 58.3593C99.6312 58.2275 99.9049 58.0349 100.128 57.7814L101.193 58.8612C100.838 59.2769 100.407 59.5912 99.8999 59.8041C99.3929 60.0171 98.8556 60.1235 98.2878 60.1235Z" fill="#161A30"/>
<path d="M55.2853 45.5681V21.383H57.8163V45.5681H55.2853ZM50.1881 23.6679V21.383L57.4647 21.383V23.6679L50.1881 23.6679ZM70.5026 45.9196C68.9324 45.9196 67.538 45.615 66.3194 45.0057C65.1242 44.3964 64.1868 43.5644 63.5072 42.5098C62.8276 41.4318 62.4877 40.2132 62.4877 38.8539C62.4877 37.7759 62.6987 36.7916 63.1205 35.9011C63.5658 34.9871 64.1868 34.2138 64.9836 33.581C65.7804 32.9248 66.7061 32.4796 67.7607 32.2452L68.0419 32.9834C67.1045 32.7256 66.3077 32.3155 65.6515 31.7531C64.9953 31.1906 64.4915 30.5227 64.1399 29.7494C63.7884 28.9526 63.6126 28.1206 63.6126 27.2535C63.6126 26.0114 63.9056 24.9334 64.4915 24.0194C65.1008 23.082 65.921 22.3438 66.9522 21.8048C68.0067 21.2658 69.1902 20.9963 70.5026 20.9963C71.8384 20.9963 73.0219 21.2658 74.053 21.8048C75.1076 22.3438 75.9278 23.082 76.5137 24.0194C77.0996 24.9334 77.3925 26.0114 77.3925 27.2535C77.3925 28.1206 77.2168 28.9526 76.8652 29.7494C76.5372 30.5227 76.045 31.1906 75.3888 31.7531C74.7326 32.3155 73.9241 32.7256 72.9633 32.9834L73.2445 32.2452C74.3225 32.4796 75.2482 32.9248 76.0216 33.581C76.8184 34.2138 77.4277 34.9871 77.8495 35.9011C78.2948 36.7916 78.5174 37.7759 78.5174 38.8539C78.5174 40.2132 78.1776 41.4318 77.498 42.5098C76.8418 43.5644 75.9044 44.3964 74.6858 45.0057C73.4906 45.615 72.0962 45.9196 70.5026 45.9196ZM70.5026 43.5996C71.5806 43.5996 72.5297 43.3886 73.35 42.9668C74.1936 42.545 74.8498 41.9591 75.3185 41.2092C75.7872 40.4358 76.0216 39.5687 76.0216 38.6079C76.0216 37.6236 75.7872 36.7682 75.3185 36.0417C74.8498 35.2918 74.1936 34.7059 73.35 34.2841C72.5297 33.8388 71.5806 33.6162 70.5026 33.6162C69.448 33.6162 68.4989 33.8388 67.6552 34.2841C66.835 34.7059 66.1788 35.2918 65.6867 36.0417C65.218 36.7682 64.9836 37.6236 64.9836 38.6079C64.9836 39.5687 65.218 40.4358 65.6867 41.2092C66.1788 41.9591 66.835 42.545 67.6552 42.9668C68.4754 43.3886 69.4246 43.5996 70.5026 43.5996ZM70.5026 31.6125C71.815 31.6125 72.8813 31.2258 73.7015 30.4524C74.5452 29.6556 74.967 28.6362 74.967 27.3941C74.967 26.152 74.5452 25.1443 73.7015 24.371C72.8813 23.5976 71.815 23.2109 70.5026 23.2109C69.2137 23.2109 68.1474 23.5976 67.3037 24.371C66.46 25.1443 66.0382 26.152 66.0382 27.3941C66.0382 28.6362 66.46 29.6556 67.3037 30.4524C68.1474 31.2258 69.2137 31.6125 70.5026 31.6125ZM82.7976 45.5681L98.3351 21.383L100.866 21.383L85.3637 45.5681H82.7976ZM96.472 45.9196C95.5815 45.9196 94.7612 45.7087 94.0113 45.2869C93.2614 44.8416 92.6638 44.244 92.2185 43.4941C91.7732 42.7442 91.5506 41.9122 91.5506 40.9983C91.5506 40.0843 91.7732 39.264 92.2185 38.5376C92.6638 37.8111 93.2497 37.2369 93.9761 36.8151C94.7261 36.3698 95.558 36.1472 96.472 36.1472C97.386 36.1472 98.2062 36.3698 98.9327 36.8151C99.6826 37.2369 100.28 37.8111 100.725 38.5376C101.171 39.264 101.393 40.0843 101.393 40.9983C101.393 41.9122 101.171 42.7442 100.725 43.4941C100.304 44.244 99.7178 44.8416 98.9678 45.2869C98.2179 45.7087 97.386 45.9196 96.472 45.9196ZM96.4368 43.9159C97.2805 43.9159 97.9718 43.6464 98.5109 43.1074C99.0499 42.5684 99.3194 41.8654 99.3194 40.9983C99.3194 40.1546 99.0381 39.475 98.4757 38.9594C97.9133 38.4204 97.2336 38.1509 96.4368 38.1509C95.6635 38.1509 95.0073 38.4204 94.4683 38.9594C93.9293 39.475 93.6598 40.1546 93.6598 40.9983C93.6598 41.8654 93.9293 42.5684 94.4683 43.1074C95.0073 43.6464 95.6635 43.9159 96.4368 43.9159ZM87.1917 30.8039C86.3011 30.8039 85.4809 30.593 84.731 30.1712C83.981 29.7259 83.3834 29.14 82.9382 28.4135C82.4929 27.6636 82.2703 26.8317 82.2703 25.9177C82.2703 25.0037 82.4929 24.1835 82.9382 23.457C83.3834 22.7071 83.9693 22.1212 84.6958 21.6994C85.4457 21.2541 86.2777 21.0315 87.1917 21.0315C88.1056 21.0315 88.9259 21.2541 89.6524 21.6994C90.4023 22.1212 90.9999 22.7071 91.4451 23.457C91.8904 24.1835 92.113 25.0037 92.113 25.9177C92.113 26.8317 91.8904 27.6636 91.4451 28.4135C91.0233 29.14 90.4374 29.7259 89.6875 30.1712C88.9376 30.593 88.1056 30.8039 87.1917 30.8039ZM87.1565 28.8002C88.0002 28.8002 88.6798 28.5307 89.1954 27.9917C89.7344 27.4527 90.0039 26.7496 90.0039 25.8825C90.0039 25.0389 89.7227 24.3593 89.1602 23.8437C88.6212 23.3047 87.9533 23.0352 87.1565 23.0352C86.3831 23.0352 85.727 23.3047 85.1879 23.8437C84.6489 24.3593 84.3794 25.0389 84.3794 25.8825C84.3794 26.7496 84.6489 27.4527 85.1879 27.9917C85.727 28.5307 86.3831 28.8002 87.1565 28.8002Z" fill="#161A30"/>
</svg>
