<svg width="194" height="142" viewBox="0 0 194 142" fill="none" xmlns="http://www.w3.org/2000/svg">
<line x1="21.2021" y1="11.5891" x2="21.2021" y2="122.624" stroke="black"/>
<line x1="20.7021" y1="122.124" x2="180.798" y2="122.124" stroke="black"/>
<path d="M8.49899 109.972L7.78127 109.972L7.78127 107.657C7.78127 107.132 7.65007 106.731 7.38768 106.453C7.11757 106.175 6.75871 106.036 6.31109 106.036C5.87892 106.036 5.52777 106.175 5.25766 106.453C4.97983 106.731 4.84092 107.132 4.84092 107.657L4.84092 109.972L4.10004 109.972L4.10004 107.657C4.10004 107.14 4.19651 106.696 4.38945 106.326C4.57467 105.955 4.8332 105.674 5.16505 105.481C5.4969 105.28 5.87506 105.18 6.29952 105.18C6.73941 105.18 7.12528 105.28 7.45713 105.481C7.78899 105.674 8.04752 105.955 8.23274 106.326C8.41024 106.696 8.49899 107.14 8.49899 107.657L8.49899 109.972ZM12.0645 110.516L4.10004 110.516L4.10004 109.671L12.0645 109.671L12.0645 110.516ZM12.0645 105.701L8.38323 108.687L8.11698 107.865L12.0645 104.612L12.0645 105.701ZM12.1802 101.226C12.1802 101.774 12.0567 102.264 11.8098 102.696C11.5628 103.128 11.2233 103.472 10.7911 103.726C10.3589 103.973 9.8727 104.097 9.33248 104.097C8.79997 104.097 8.32149 103.973 7.89703 103.726C7.46485 103.479 7.12528 103.144 6.87833 102.719C6.63137 102.295 6.50789 101.82 6.50789 101.295C6.50789 100.801 6.61979 100.365 6.8436 99.9872C7.0674 99.6013 7.37996 99.3004 7.78127 99.0843C8.17486 98.8605 8.63019 98.7486 9.14726 98.7486C9.209 98.7486 9.28231 98.7524 9.3672 98.7601C9.44438 98.7679 9.53699 98.7833 9.64503 98.8064L9.64503 103.518L8.95046 103.518L8.95046 99.2463L9.20514 99.5357C8.80383 99.528 8.4604 99.5975 8.17486 99.7441C7.88159 99.883 7.65779 100.088 7.50344 100.358C7.34137 100.62 7.26034 100.94 7.26034 101.318C7.26034 101.712 7.34523 102.055 7.51502 102.349C7.6848 102.642 7.92404 102.874 8.23274 103.043C8.53372 103.205 8.89258 103.286 9.30932 103.286C9.72607 103.286 10.0926 103.202 10.4091 103.032C10.7255 102.854 10.9724 102.611 11.1499 102.302C11.3274 101.986 11.4162 101.623 11.4162 101.214C11.4162 100.882 11.3583 100.578 11.2425 100.3C11.1191 100.022 10.9377 99.7866 10.6985 99.5936L11.231 99.0727C11.5319 99.3274 11.7673 99.6438 11.9371 100.022C12.0992 100.392 12.1802 100.794 12.1802 101.226ZM12.1802 95.842C12.1802 96.1352 12.1416 96.4169 12.0645 96.687C11.9796 96.9571 11.8638 97.2041 11.7172 97.4279C11.5705 97.644 11.3969 97.8331 11.1962 97.9951L10.6637 97.4742C10.9261 97.2581 11.1229 97.015 11.2541 96.7449C11.3776 96.4671 11.4393 96.1584 11.4393 95.8188C11.4393 95.4561 11.3699 95.1744 11.231 94.9737C11.0921 94.7654 10.8991 94.6612 10.6522 94.6612C10.4206 94.6612 10.2393 94.7345 10.1081 94.8811C9.97688 95.0278 9.8727 95.2168 9.79552 95.4484C9.71835 95.6722 9.64503 95.9114 9.57557 96.1661C9.4984 96.4208 9.40579 96.6639 9.29775 96.8954C9.18198 97.1269 9.02378 97.316 8.82312 97.4626C8.62247 97.6015 8.36008 97.671 8.03594 97.671C7.72725 97.671 7.46099 97.5977 7.23719 97.451C7.00566 97.2967 6.82816 97.0806 6.70468 96.8028C6.57349 96.5172 6.50789 96.1815 6.50789 95.7956C6.50789 95.3866 6.5812 95.0162 6.72784 94.6843C6.87447 94.3525 7.09056 94.0862 7.3761 93.8856L7.89703 94.4065C7.68866 94.5686 7.53045 94.7731 7.42241 95.02C7.30664 95.2593 7.24876 95.5294 7.24876 95.8304C7.24876 96.1777 7.31822 96.4439 7.45713 96.6291C7.58833 96.8066 7.76197 96.8954 7.97806 96.8954C8.18643 96.8954 8.35236 96.8221 8.47584 96.6754C8.5916 96.5288 8.68807 96.3436 8.76524 96.1198C8.8347 95.8883 8.90802 95.6452 8.98519 95.3905C9.05465 95.1358 9.15111 94.8927 9.27459 94.6612C9.39036 94.4297 9.55242 94.2444 9.76079 94.1055C9.96145 93.9589 10.2354 93.8856 10.5827 93.8856C11.0689 93.8856 11.4586 94.0631 11.7519 94.4181C12.0374 94.7654 12.1802 95.24 12.1802 95.842ZM12.0645 91.7576L4.33157 91.7576L4.33157 90.9472L12.0645 90.9472L12.0645 91.7576ZM7.35295 93.1351L6.62365 93.1351L6.62365 89.5812L7.35295 89.5812L7.35295 93.1351ZM12.1802 86.1915C12.1802 86.7163 12.0529 87.1948 11.7982 87.6269C11.5435 88.0514 11.2001 88.391 10.7679 88.6456C10.3357 88.8926 9.8534 89.0161 9.3209 89.0161C8.79611 89.0161 8.32149 88.8926 7.89703 88.6456C7.47257 88.391 7.13686 88.0514 6.8899 87.6269C6.63523 87.1948 6.50789 86.7163 6.50789 86.1915C6.50789 85.659 6.63137 85.1805 6.87833 84.756C7.12528 84.3316 7.46485 83.9959 7.89703 83.7489C8.32149 83.4942 8.79611 83.3669 9.3209 83.3669C9.86112 83.3669 10.3473 83.4942 10.7795 83.7489C11.204 83.9959 11.5435 84.3316 11.7982 84.756C12.0529 85.1805 12.1802 85.659 12.1802 86.1915ZM11.393 86.1915C11.393 85.8056 11.3043 85.4661 11.1268 85.1728C10.9493 84.8718 10.7023 84.6364 10.3859 84.4666C10.0695 84.2891 9.71449 84.2004 9.3209 84.2004C8.92731 84.2004 8.58002 84.2891 8.27904 84.4666C7.97034 84.6364 7.72724 84.8718 7.54974 85.1728C7.37224 85.4661 7.28349 85.8056 7.28349 86.1915C7.28349 86.5696 7.37224 86.9092 7.54974 87.2102C7.72724 87.5112 7.97034 87.7466 8.27904 87.9163C8.58002 88.0861 8.92731 88.171 9.3209 88.171C9.72221 88.171 10.0811 88.0861 10.3975 87.9163C10.7062 87.7466 10.9493 87.5112 11.1268 87.2102C11.3043 86.9092 11.393 86.5696 11.393 86.1915ZM12.0645 82.0778L6.62365 82.0778L6.62365 81.2675L12.0645 81.2675L12.0645 82.0778ZM8.89258 81.2675L8.74209 81.6032C8.05524 81.6032 7.51116 81.4372 7.10985 81.1054C6.70854 80.7658 6.50789 80.3028 6.50789 79.7162C6.50789 79.4461 6.55805 79.1992 6.65838 78.9754C6.75099 78.7516 6.90148 78.5432 7.10985 78.3503L7.67708 78.8828C7.53045 79.014 7.42626 79.1606 7.36452 79.3227C7.30278 79.477 7.27191 79.6545 7.27191 79.8552C7.27191 80.2719 7.41083 80.6115 7.68866 80.8739C7.95877 81.1363 8.36008 81.2675 8.89258 81.2675ZM12.1802 75.3187C12.1802 75.8357 12.0567 76.2988 11.8098 76.7078C11.5551 77.1168 11.2155 77.441 10.7911 77.6802C10.3666 77.9117 9.88813 78.0275 9.35563 78.0275C8.8154 78.0275 8.33306 77.9117 7.9086 77.6802C7.47643 77.441 7.13686 77.1168 6.8899 76.7078C6.63523 76.2988 6.50789 75.8396 6.50789 75.3302C6.50789 74.9135 6.59278 74.5431 6.76256 74.2189C6.92463 73.8871 7.15615 73.6208 7.45713 73.4202C7.7504 73.2118 8.09382 73.0845 8.48741 73.0382L10.1891 73.0382C10.5827 73.0845 10.93 73.2118 11.231 73.4202C11.5319 73.6208 11.7673 73.8871 11.9371 74.2189C12.0992 74.5431 12.1802 74.9096 12.1802 75.3187ZM11.4046 75.1913C11.4046 74.6279 11.2155 74.1765 10.8374 73.8369C10.4592 73.4896 9.96145 73.316 9.34405 73.316C8.93503 73.316 8.57616 73.397 8.26747 73.5591C7.95105 73.7134 7.70795 73.9334 7.53817 74.2189C7.36067 74.4968 7.27191 74.8247 7.27191 75.2029C7.27191 75.5888 7.36067 75.9322 7.53817 76.2332C7.71567 76.5264 7.96263 76.7618 8.27904 76.9393C8.58774 77.1091 8.94274 77.194 9.34405 77.194C9.74536 77.194 10.1004 77.1091 10.4091 76.9393C10.7178 76.7618 10.9609 76.5226 11.1384 76.2216C11.3159 75.9206 11.4046 75.5772 11.4046 75.1913ZM12.0645 73.3623L10.6059 73.3623L9.26302 73.2002L7.95491 73.3623L6.62365 73.3623L6.62365 72.552L12.0645 72.552L12.0645 73.3623ZM12.0645 70.1087L4.33157 70.1087L4.33157 69.2984L12.0645 69.2984L12.0645 70.1087ZM7.35295 71.4863L6.62365 71.4863L6.62365 67.9324L7.35295 67.9324L7.35295 71.4863ZM12.0645 66.8162L6.62365 66.8162L6.62365 65.9943L12.0645 65.9943L12.0645 66.8162ZM5.44288 66.4111C5.44288 66.5654 5.38886 66.6966 5.28081 66.8047C5.16505 66.9127 5.03 66.9667 4.87565 66.9667C4.71358 66.9667 4.57852 66.9127 4.47048 66.8047C4.36244 66.6966 4.30841 66.5654 4.30841 66.4111C4.30841 66.2413 4.36244 66.1062 4.47048 66.0059C4.57852 65.8979 4.71358 65.8438 4.87565 65.8438C5.03 65.8438 5.16505 65.8979 5.28081 66.0059C5.38886 66.1062 5.44288 66.2413 5.44288 66.4111ZM12.0645 62.4533L6.62365 64.9653L6.62365 64.0624L11.3815 61.9439L11.3815 62.4533L6.62365 60.3233L6.62365 59.4435L12.0645 61.9787L12.0645 62.4533ZM12.1802 56.1534C12.1802 56.7013 12.0567 57.1914 11.8098 57.6236C11.5628 58.0558 11.2232 58.3992 10.7911 58.6539C10.3589 58.9008 9.87269 59.0243 9.33247 59.0243C8.79997 59.0243 8.32149 58.9008 7.89703 58.6539C7.46485 58.4069 7.12528 58.0712 6.87832 57.6467C6.63137 57.2223 6.50789 56.7476 6.50789 56.2229C6.50789 55.7289 6.61979 55.2929 6.8436 54.9147C7.0674 54.5289 7.37996 54.2279 7.78127 54.0118C8.17486 53.788 8.63019 53.6761 9.14725 53.6761C9.20899 53.6761 9.28231 53.68 9.3672 53.6877C9.44438 53.6954 9.53699 53.7108 9.64503 53.734L9.64503 58.4455L8.95046 58.4455L8.95046 54.1739L9.20514 54.4633C8.80383 54.4556 8.4604 54.525 8.17486 54.6716C7.88159 54.8106 7.65779 55.0151 7.50344 55.2852C7.34137 55.5476 7.26034 55.8679 7.26034 56.246C7.26034 56.6396 7.34523 56.983 7.51501 57.2763C7.6848 57.5696 7.92404 57.8011 8.23274 57.9709C8.53372 58.1329 8.89258 58.214 9.30932 58.214C9.72606 58.214 10.0926 58.1291 10.4091 57.9593C10.7255 57.7818 10.9724 57.5387 11.1499 57.23C11.3274 56.9136 11.4162 56.5508 11.4162 56.1418C11.4162 55.81 11.3583 55.5051 11.2425 55.2273C11.1191 54.9495 10.9377 54.7141 10.6985 54.5212L11.231 54.0002C11.5319 54.2549 11.7673 54.5713 11.9371 54.9495C12.0992 55.3199 12.1802 55.7212 12.1802 56.1534ZM12.1802 47.5531C12.1802 48.1705 12.0645 48.703 11.8329 49.1506C11.5937 49.5982 11.2618 49.9918 10.8374 50.3314L10.2586 49.741C10.6367 49.4709 10.9184 49.1583 11.1036 48.8033C11.2888 48.4406 11.3815 48.0123 11.3815 47.5184C11.3815 47.009 11.2657 46.5962 11.0342 46.2797C10.8026 45.9633 10.4824 45.8051 10.0733 45.8051C9.75693 45.8051 9.4984 45.8784 9.29774 46.0251C9.08937 46.1717 8.92345 46.3646 8.79997 46.6039C8.66877 46.8354 8.55301 47.0939 8.45268 47.3795C8.35236 47.665 8.24817 47.9506 8.14013 48.2361C8.02437 48.5139 7.88159 48.7725 7.71181 49.0117C7.54202 49.251 7.32594 49.4439 7.06354 49.5905C6.80115 49.7294 6.46544 49.7989 6.05641 49.7989C5.62424 49.7989 5.2538 49.6947 4.9451 49.4863C4.6364 49.278 4.40102 48.9924 4.23896 48.6297C4.06917 48.267 3.98428 47.8541 3.98428 47.3911C3.98428 46.874 4.08461 46.4148 4.28526 46.0135C4.48591 45.6045 4.75602 45.2649 5.09559 44.9948L5.6744 45.5736C5.38114 45.8205 5.15733 46.0907 5.00298 46.3839C4.84863 46.6772 4.77146 47.0206 4.77146 47.4142C4.77146 47.8772 4.8795 48.2477 5.09559 48.5255C5.31168 48.8033 5.61266 48.9423 5.99853 48.9423C6.29951 48.9423 6.54261 48.8728 6.72783 48.7339C6.91305 48.5873 7.0674 48.3943 7.19088 48.1551C7.31436 47.9158 7.42626 47.6573 7.52659 47.3795C7.6192 47.0939 7.72338 46.8084 7.83915 46.5228C7.95491 46.2373 8.10154 45.9788 8.27904 45.7472C8.45654 45.508 8.68421 45.3151 8.96204 45.1684C9.23215 45.0218 9.57943 44.9485 10.0039 44.9485C10.6907 44.9485 11.2271 45.1839 11.613 45.6546C11.9911 46.1177 12.1802 46.7505 12.1802 47.5531ZM12.0645 43.5395L3.86852 43.5395L3.86852 42.7292L12.0644 42.7292L12.0645 43.5395ZM12.1802 38.5743C12.1802 39.1223 12.0567 39.6123 11.8098 40.0445C11.5628 40.4767 11.2232 40.8201 10.7911 41.0748C10.3589 41.3218 9.87269 41.4452 9.33247 41.4452C8.79997 41.4452 8.32149 41.3218 7.89703 41.0748C7.46485 40.8278 7.12528 40.4921 6.87832 40.0677C6.63136 39.6432 6.50789 39.1686 6.50789 38.6438C6.50789 38.1499 6.61979 37.7139 6.84359 37.3357C7.0674 36.9498 7.37996 36.6488 7.78126 36.4328C8.17485 36.2089 8.63018 36.097 9.14725 36.097C9.20899 36.097 9.28231 36.1009 9.3672 36.1086C9.44438 36.1163 9.53698 36.1318 9.64503 36.1549L9.64503 40.8664L8.95046 40.8664L8.95046 36.5948L9.20513 36.8842C8.80383 36.8765 8.4604 36.946 8.17485 37.0926C7.88159 37.2315 7.65779 37.436 7.50344 37.7061C7.34137 37.9685 7.26034 38.2888 7.26034 38.667C7.26034 39.0605 7.34523 39.404 7.51501 39.6972C7.6848 39.9905 7.92404 40.222 8.23274 40.3918C8.53372 40.5539 8.89258 40.6349 9.30932 40.6349C9.72606 40.6349 10.0926 40.55 10.4091 40.3802C10.7255 40.2027 10.9724 39.9596 11.1499 39.6509C11.3274 39.3345 11.4162 38.9718 11.4162 38.5628C11.4162 38.2309 11.3583 37.9261 11.2425 37.6483C11.1191 37.3704 10.9377 37.135 10.6985 36.9421L11.231 36.4212C11.5319 36.6759 11.7673 36.9923 11.9371 37.3704C12.0992 37.7409 12.1802 38.1422 12.1802 38.5743ZM12.1802 32.3454C12.1802 32.8933 12.0567 33.3834 11.8098 33.8155C11.5628 34.2477 11.2232 34.5911 10.7911 34.8458C10.3589 35.0928 9.87269 35.2163 9.33247 35.2163C8.79997 35.2163 8.32149 35.0928 7.89703 34.8458C7.46485 34.5989 7.12528 34.2632 6.87832 33.8387C6.63136 33.4142 6.50789 32.9396 6.50789 32.4148C6.50789 31.9209 6.61979 31.4849 6.84359 31.1067C7.0674 30.7208 7.37996 30.4199 7.78126 30.2038C8.17485 29.98 8.63018 29.8681 9.14725 29.8681C9.20899 29.8681 9.28231 29.8719 9.3672 29.8796C9.44438 29.8874 9.53698 29.9028 9.64503 29.9259L9.64503 34.6374L8.95046 34.6374L8.95046 30.3658L9.20513 30.6552C8.80383 30.6475 8.4604 30.717 8.17485 30.8636C7.88159 31.0025 7.65779 31.207 7.50344 31.4772C7.34137 31.7395 7.26034 32.0598 7.26034 32.438C7.26034 32.8316 7.34523 33.175 7.51501 33.4683C7.6848 33.7615 7.92404 33.993 8.23274 34.1628C8.53372 34.3249 8.89258 34.4059 9.30932 34.4059C9.72606 34.4059 10.0926 34.321 10.4091 34.1513C10.7255 33.9737 10.9724 33.7306 11.1499 33.422C11.3274 33.1055 11.4162 32.7428 11.4162 32.3338C11.4162 32.0019 11.3583 31.6971 11.2425 31.4193C11.1191 31.1414 10.9377 30.9061 10.6985 30.7131L11.231 30.1922C11.5319 30.4469 11.7673 30.7633 11.9371 31.1414C12.0992 31.5119 12.1802 31.9132 12.1802 32.3454ZM12.1802 25.8154C12.1802 26.2322 12.0953 26.6065 11.9255 26.9383C11.7558 27.2702 11.5242 27.5441 11.231 27.7602C10.93 27.9686 10.5827 28.0959 10.1891 28.1422L8.48741 28.1422C8.0861 28.0959 7.73882 27.9647 7.44556 27.7486C7.14457 27.5325 6.91305 27.2586 6.75098 26.9267C6.58892 26.5872 6.50789 26.2167 6.50789 25.8154C6.50789 25.3138 6.63522 24.8623 6.8899 24.461C7.13686 24.0597 7.47642 23.7433 7.9086 23.5118C8.33306 23.2725 8.8154 23.1529 9.35562 23.1529C9.88813 23.1529 10.3666 23.2687 10.7911 23.5002C11.2155 23.7317 11.5551 24.052 11.8098 24.461C12.0567 24.8623 12.1802 25.3138 12.1802 25.8154ZM14.3565 28.6284L6.62365 28.6284L6.62365 27.8181L8.01279 27.8181L9.33247 27.9802L10.6637 27.8181L14.3565 27.8181L14.3565 28.6284ZM11.4046 25.9543C11.4046 25.5685 11.3197 25.2289 11.1499 24.9356C10.9724 24.6424 10.7293 24.4147 10.4206 24.2526C10.1042 24.0828 9.74536 23.998 9.34405 23.998C8.93502 23.998 8.57616 24.0828 8.26746 24.2526C7.95877 24.4147 7.71567 24.6424 7.53816 24.9356C7.36066 25.2289 7.27191 25.5646 7.27191 25.9428C7.27191 26.3209 7.36066 26.6566 7.53816 26.9499C7.71567 27.2354 7.95877 27.4592 8.26746 27.6213C8.57616 27.7834 8.93502 27.8644 9.34405 27.8644C9.74536 27.8644 10.1042 27.7834 10.4206 27.6213C10.7293 27.4592 10.9724 27.2354 11.1499 26.9499C11.3197 26.6643 11.4046 26.3325 11.4046 25.9543Z" fill="#161A30"/>
<path d="M4.63741 137.902V137.115H6.9758C7.60091 137.115 8.15271 136.98 8.63119 136.71C9.10967 136.432 9.48397 136.054 9.75408 135.575C10.0242 135.089 10.1592 134.533 10.1592 133.908C10.1592 133.283 10.0242 132.731 9.75408 132.253C9.48397 131.774 9.10967 131.4 8.63119 131.13C8.15271 130.852 7.60091 130.713 6.9758 130.713H4.66056L4.66056 129.938H6.99895C7.57776 129.938 8.11026 130.038 8.59646 130.239C9.09038 130.432 9.5187 130.709 9.88142 131.072C10.2519 131.427 10.5374 131.848 10.7381 132.334C10.9387 132.812 11.039 133.341 11.039 133.92C11.039 134.483 10.9387 135.008 10.7381 135.494C10.5374 135.98 10.2557 136.405 9.89299 136.768C9.53027 137.123 9.10196 137.4 8.60804 137.601C8.12184 137.802 7.59319 137.902 7.0221 137.902H4.63741ZM4.11648 137.902L4.11648 129.938H4.96154L4.96154 137.902H4.11648ZM14.839 138.018C14.3219 138.018 13.8589 137.894 13.4499 137.647C13.0408 137.393 12.7167 137.053 12.4775 136.629C12.2459 136.204 12.1302 135.726 12.1302 135.193C12.1302 134.653 12.2459 134.171 12.4775 133.746C12.7167 133.314 13.0408 132.975 13.4499 132.728C13.8589 132.473 14.3181 132.346 14.8274 132.346C15.2442 132.346 15.6146 132.43 15.9387 132.6C16.2706 132.762 16.5368 132.994 16.7375 133.295C16.9459 133.588 17.0732 133.931 17.1195 134.325V136.027C17.0732 136.42 16.9459 136.768 16.7375 137.069C16.5368 137.37 16.2706 137.605 15.9387 137.775C15.6146 137.937 15.248 138.018 14.839 138.018ZM14.9663 137.242C15.5297 137.242 15.9812 137.053 16.3208 136.675C16.668 136.297 16.8417 135.799 16.8417 135.182C16.8417 134.773 16.7607 134.414 16.5986 134.105C16.4442 133.789 16.2243 133.546 15.9387 133.376C15.6609 133.198 15.3329 133.11 14.9548 133.11C14.5689 133.11 14.2255 133.198 13.9245 133.376C13.6312 133.553 13.3958 133.8 13.2183 134.117C13.0486 134.425 12.9637 134.78 12.9637 135.182C12.9637 135.583 13.0486 135.938 13.2183 136.247C13.3958 136.555 13.6351 136.799 13.9361 136.976C14.237 137.154 14.5805 137.242 14.9663 137.242ZM16.7954 137.902V136.444L16.9574 135.101L16.7954 133.793V132.461H17.6057L17.6057 137.902H16.7954ZM21.0665 137.925L18.6818 132.461H19.5732L21.4949 137.022H21.1591L23.185 132.461H24.0879L21.5296 137.925H21.0665ZM19.5848 140.194L21.0781 137.103L21.5296 137.925L20.4762 140.194H19.5848ZM26.6137 138.018C26.3204 138.018 26.0387 137.979 25.7686 137.902C25.4985 137.817 25.2516 137.701 25.0278 137.555C24.8117 137.408 24.6226 137.235 24.4605 137.034L24.9815 136.501C25.1975 136.764 25.4406 136.961 25.7108 137.092C25.9886 137.215 26.2973 137.277 26.6368 137.277C26.9996 137.277 27.2813 137.208 27.4819 137.069C27.6903 136.93 27.7945 136.737 27.7945 136.49C27.7945 136.258 27.7211 136.077 27.5745 135.946C27.4279 135.815 27.2388 135.71 27.0073 135.633C26.7835 135.556 26.5442 135.483 26.2896 135.413C26.0349 135.336 25.7918 135.243 25.5603 135.135C25.3287 135.02 25.1397 134.861 24.993 134.661C24.8541 134.46 24.7847 134.198 24.7847 133.874C24.7847 133.565 24.858 133.299 25.0046 133.075C25.159 132.843 25.375 132.666 25.6529 132.542C25.9384 132.411 26.2741 132.346 26.66 132.346C27.069 132.346 27.4395 132.419 27.7713 132.565C28.1032 132.712 28.3694 132.928 28.5701 133.214L28.0491 133.735C27.8871 133.526 27.6826 133.368 27.4356 133.26C27.1964 133.144 26.9263 133.086 26.6253 133.086C26.278 133.086 26.0117 133.156 25.8265 133.295C25.649 133.426 25.5603 133.6 25.5603 133.816C25.5603 134.024 25.6336 134.19 25.7802 134.313C25.9268 134.429 26.1121 134.526 26.3359 134.603C26.5674 134.672 26.8105 134.746 27.0652 134.823C27.3198 134.892 27.5629 134.989 27.7945 135.112C28.026 135.228 28.2112 135.39 28.3501 135.598C28.4968 135.799 28.5701 136.073 28.5701 136.42C28.5701 136.907 28.3926 137.296 28.0376 137.59C27.6903 137.875 27.2157 138.018 26.6137 138.018Z" fill="#161A30"/>
<path d="M80.7018 137.902V129.938H81.5353V137.902H80.7018ZM79.0233 130.69V129.938H81.4195V130.69H79.0233ZM85.3889 138.018C84.8641 138.018 84.3934 137.918 83.9766 137.717C83.5599 137.516 83.2087 137.227 82.9232 136.849L83.4904 136.281C83.6833 136.575 83.9419 136.806 84.266 136.976C84.5979 137.138 84.9683 137.219 85.3773 137.219C85.7632 137.219 86.1028 137.146 86.396 136.999C86.6893 136.845 86.917 136.633 87.079 136.362C87.2488 136.085 87.3337 135.761 87.3337 135.39C87.3337 135.012 87.2527 134.688 87.0906 134.418C86.9285 134.14 86.7086 133.928 86.4308 133.781C86.1529 133.634 85.8404 133.561 85.4931 133.561C85.1612 133.561 84.8564 133.607 84.5786 133.7C84.3085 133.785 84.0615 133.924 83.8377 134.117L83.8145 133.561C83.9535 133.407 84.1117 133.279 84.2892 133.179C84.4667 133.079 84.6635 133.002 84.8795 132.947C85.1034 132.893 85.3503 132.866 85.6204 132.866C86.1529 132.866 86.6121 132.982 86.998 133.214C87.3839 133.438 87.6771 133.742 87.8778 134.128C88.0862 134.514 88.1903 134.95 88.1903 135.436C88.1903 135.938 88.0707 136.382 87.8315 136.768C87.5922 137.154 87.2604 137.458 86.8359 137.682C86.4192 137.906 85.9368 138.018 85.3889 138.018ZM83.8377 134.117L83.3862 133.654L83.7335 129.938H84.5091L84.1271 133.735L83.8377 134.117ZM83.9419 130.69L83.7335 129.938H87.8315V130.69H83.9419Z" fill="#161A30"/>
<path d="M119.354 138.018C118.845 138.018 118.378 137.918 117.953 137.717C117.537 137.516 117.185 137.227 116.9 136.849L117.467 136.281C117.66 136.575 117.922 136.806 118.254 136.976C118.586 137.138 118.949 137.219 119.342 137.219C119.728 137.219 120.06 137.146 120.338 136.999C120.624 136.853 120.844 136.648 120.998 136.386C121.16 136.116 121.241 135.803 121.241 135.448C121.241 135.085 121.16 134.773 120.998 134.51C120.844 134.248 120.62 134.043 120.326 133.897C120.041 133.75 119.697 133.677 119.296 133.677C119.165 133.677 119.03 133.685 118.891 133.7C118.76 133.715 118.629 133.742 118.497 133.781L118.822 133.306C118.953 133.237 119.096 133.183 119.25 133.144C119.404 133.106 119.574 133.086 119.759 133.086C120.199 133.086 120.597 133.191 120.952 133.399C121.307 133.6 121.584 133.881 121.785 134.244C121.993 134.599 122.098 135.012 122.098 135.483C122.098 135.984 121.982 136.424 121.75 136.802C121.519 137.181 121.195 137.478 120.778 137.694C120.369 137.91 119.894 138.018 119.354 138.018ZM118.497 133.781V133.26L121.021 130.424L122.005 130.459L119.435 133.33L118.497 133.781ZM117.247 130.69V129.938H122.005V130.459L121.276 130.69H117.247ZM126.498 138.018C125.912 138.018 125.375 137.852 124.889 137.52C124.403 137.181 124.013 136.702 123.72 136.085C123.435 135.467 123.292 134.742 123.292 133.908C123.292 133.067 123.435 132.346 123.72 131.744C124.006 131.134 124.388 130.663 124.866 130.331C125.352 129.992 125.889 129.822 126.475 129.822C127.069 129.822 127.606 129.988 128.084 130.32C128.57 130.652 128.956 131.126 129.242 131.744C129.527 132.353 129.67 133.079 129.67 133.92C129.67 134.753 129.527 135.479 129.242 136.096C128.956 136.714 128.574 137.188 128.096 137.52C127.617 137.852 127.085 138.018 126.498 138.018ZM126.475 137.219C126.931 137.219 127.332 137.092 127.679 136.837C128.034 136.575 128.312 136.2 128.513 135.714C128.713 135.22 128.814 134.618 128.814 133.908C128.814 133.206 128.713 132.612 128.513 132.126C128.312 131.632 128.034 131.257 127.679 131.003C127.332 130.748 126.931 130.621 126.475 130.621C126.028 130.621 125.626 130.748 125.271 131.003C124.924 131.257 124.65 131.628 124.449 132.114C124.249 132.6 124.148 133.198 124.148 133.908C124.148 134.618 124.249 135.22 124.449 135.714C124.65 136.2 124.924 136.575 125.271 136.837C125.626 137.092 126.028 137.219 126.475 137.219Z" fill="#161A30"/>
<path d="M157.066 135.263L160.041 129.938H160.991L157.969 135.263H157.066ZM157.066 135.795V135.263L157.425 135.031H163.097V135.795H157.066ZM161.083 137.902V132.589H161.917V137.902H161.083ZM166.201 138.018C165.676 138.018 165.206 137.918 164.789 137.717C164.372 137.516 164.021 137.227 163.735 136.849L164.303 136.281C164.496 136.575 164.754 136.806 165.078 136.976C165.41 137.138 165.78 137.219 166.189 137.219C166.575 137.219 166.915 137.146 167.208 136.999C167.501 136.845 167.729 136.633 167.891 136.362C168.061 136.085 168.146 135.761 168.146 135.39C168.146 135.012 168.065 134.688 167.903 134.418C167.741 134.14 167.521 133.928 167.243 133.781C166.965 133.634 166.653 133.561 166.305 133.561C165.973 133.561 165.669 133.607 165.391 133.7C165.121 133.785 164.874 133.924 164.65 134.117L164.627 133.561C164.766 133.407 164.924 133.279 165.101 133.179C165.279 133.079 165.476 133.002 165.692 132.947C165.916 132.893 166.162 132.866 166.433 132.866C166.965 132.866 167.424 132.982 167.81 133.214C168.196 133.438 168.489 133.742 168.69 134.128C168.898 134.514 169.003 134.95 169.003 135.436C169.003 135.938 168.883 136.382 168.644 136.768C168.404 137.154 168.073 137.458 167.648 137.682C167.231 137.906 166.749 138.018 166.201 138.018ZM164.65 134.117L164.198 133.654L164.546 129.938H165.321L164.939 133.735L164.65 134.117ZM164.754 130.69L164.546 129.938H168.644V130.69H164.754Z" fill="#161A30"/>
<path d="M42.2533 102.88C42.2533 104.352 43.4472 105.546 44.9199 105.546C46.3927 105.546 47.5866 104.352 47.5866 102.88C47.5866 101.407 46.3927 100.213 44.9199 100.213C43.4472 100.213 42.2533 101.407 42.2533 102.88ZM164.131 16.9576C164.326 16.7623 164.326 16.4457 164.131 16.2505L160.949 13.0685C160.754 12.8732 160.437 12.8732 160.242 13.0685C160.047 13.2637 160.047 13.5803 160.242 13.7756L163.07 16.604L160.242 19.4324C160.047 19.6277 160.047 19.9443 160.242 20.1395C160.437 20.3348 160.754 20.3348 160.949 20.1395L164.131 16.9576ZM44.9199 102.88V103.38C70.1412 103.38 87.8972 97.9708 100.922 89.823C113.945 81.6759 122.195 70.8168 128.445 59.9918C131.569 54.5821 134.197 49.174 136.668 44.1218C139.143 39.062 141.456 34.3676 143.961 30.3491C148.964 22.3214 154.66 17.104 163.777 17.104V16.604V16.104C154.152 16.104 148.191 21.6711 143.112 29.8201C140.576 33.8899 138.24 38.6319 135.77 43.6825C133.296 48.7407 130.683 54.1171 127.579 59.4918C121.376 70.2357 113.227 80.9456 100.391 88.9752C87.557 97.0041 69.9941 102.38 44.9199 102.38V102.88Z" fill="#00B1FF"/>
<path d="M57.9949 58.9924V48.3466H59.7439V58.9924H57.9949ZM66.8249 58.9924V54.7797C66.8249 54.293 66.6678 53.8926 66.3535 53.5782C66.0493 53.2639 65.6539 53.1068 65.1672 53.1068C64.8428 53.1068 64.5538 53.1778 64.3003 53.3197C64.0469 53.4616 63.8491 53.6594 63.7072 53.9128C63.5653 54.1663 63.4943 54.4553 63.4943 54.7797L62.8403 54.4147C62.8403 53.8571 62.962 53.3653 63.2053 52.9395C63.4487 52.5035 63.7832 52.1639 64.2091 51.9205C64.645 51.6671 65.1317 51.5403 65.6691 51.5403C66.2166 51.5403 66.7033 51.6823 67.1291 51.9662C67.5549 52.2399 67.8895 52.5998 68.1328 53.046C68.3762 53.4819 68.4978 53.9382 68.4978 54.4147V58.9924H66.8249ZM61.8214 58.9924V51.6924H63.4943V58.9924H61.8214ZM73.5589 59.1445C72.839 59.1445 72.1851 58.9772 71.597 58.6426C71.0191 58.3081 70.5629 57.8518 70.2283 57.2739C69.8937 56.696 69.7264 56.0521 69.7264 55.3424C69.7264 54.6226 69.8937 53.9787 70.2283 53.411C70.5629 52.833 71.0191 52.3768 71.597 52.0422C72.1851 51.7076 72.839 51.5403 73.5589 51.5403C74.1267 51.5403 74.6539 51.6518 75.1406 51.8749C75.6374 52.0878 76.0582 52.3971 76.4029 52.8026L75.3079 53.9128C75.095 53.6594 74.8364 53.4718 74.5322 53.3501C74.2382 53.2183 73.9138 53.1524 73.5589 53.1524C73.1432 53.1524 72.7731 53.2487 72.4487 53.4414C72.1344 53.6239 71.886 53.8773 71.7035 54.2018C71.5311 54.5262 71.4449 54.9064 71.4449 55.3424C71.4449 55.7683 71.5311 56.1485 71.7035 56.483C71.886 56.8075 72.1344 57.066 72.4487 57.2587C72.7731 57.4412 73.1432 57.5324 73.5589 57.5324C73.9138 57.5324 74.2382 57.4716 74.5322 57.3499C74.8364 57.2181 75.095 57.0255 75.3079 56.772L76.4029 57.8822C76.0582 58.2878 75.6374 58.6021 75.1406 58.8251C74.6539 59.0381 74.1267 59.1445 73.5589 59.1445ZM77.609 58.9924V51.6924H79.2819V58.9924H77.609ZM79.2819 54.9318L78.704 54.6428C78.704 53.7202 78.9068 52.975 79.3123 52.4072C79.728 51.8293 80.3516 51.5403 81.1829 51.5403C81.5479 51.5403 81.8775 51.6062 82.1715 51.738C82.4655 51.8698 82.7393 52.0828 82.9927 52.3768L81.8977 53.5022C81.7659 53.3603 81.6189 53.2589 81.4567 53.198C81.2945 53.1372 81.1069 53.1068 80.894 53.1068C80.4276 53.1068 80.0423 53.2538 79.7381 53.5478C79.434 53.8419 79.2819 54.3032 79.2819 54.9318ZM86.9709 59.1445C86.2409 59.1445 85.5819 58.9823 84.9938 58.6578C84.4159 58.3233 83.9546 57.867 83.6099 57.2891C83.2753 56.7112 83.108 56.0623 83.108 55.3424C83.108 54.6226 83.2753 53.9787 83.6099 53.411C83.9445 52.833 84.3956 52.3768 84.9634 52.0422C85.5413 51.7076 86.1801 51.5403 86.8797 51.5403C87.559 51.5403 88.1572 51.6975 88.6743 52.0118C89.2015 52.3261 89.6121 52.757 89.9061 53.3045C90.2103 53.852 90.3624 54.4755 90.3624 55.1751C90.3624 55.2968 90.3523 55.4235 90.332 55.5553C90.3218 55.677 90.3016 55.8139 90.2711 55.966H84.279V54.5972H89.4043L88.7807 55.1447C88.7604 54.6986 88.6743 54.3235 88.5222 54.0193C88.3701 53.7151 88.1521 53.4819 87.8682 53.3197C87.5945 53.1575 87.2548 53.0764 86.8493 53.0764C86.4234 53.0764 86.0534 53.1676 85.739 53.3501C85.4247 53.5326 85.1814 53.7912 85.009 54.1257C84.8367 54.4502 84.7505 54.8405 84.7505 55.2968C84.7505 55.753 84.8417 56.1535 85.0242 56.4983C85.2068 56.843 85.4653 57.1117 85.7999 57.3043C86.1345 57.4868 86.5197 57.5781 86.9557 57.5781C87.3309 57.5781 87.6756 57.5121 87.9899 57.3803C88.3143 57.2485 88.5881 57.0559 88.8111 56.8024L89.8757 57.8822C89.5209 58.2979 89.09 58.6122 88.583 58.8251C88.0761 59.0381 87.5387 59.1445 86.9709 59.1445ZM94.7604 59.1445C94.1013 59.1445 93.5031 58.9772 92.9658 58.6426C92.4385 58.3081 92.0178 57.8569 91.7035 57.2891C91.3993 56.7112 91.2472 56.0674 91.2472 55.3576C91.2472 54.6378 91.3993 53.9939 91.7035 53.4262C92.0178 52.8482 92.4385 52.392 92.9658 52.0574C93.5031 51.7127 94.1013 51.5403 94.7604 51.5403C95.318 51.5403 95.8097 51.662 96.2356 51.9053C96.6715 52.1385 97.0163 52.463 97.2697 52.8787C97.5232 53.2944 97.6499 53.7658 97.6499 54.293V56.3918C97.6499 56.919 97.5232 57.3905 97.2697 57.8062C97.0264 58.2219 96.6867 58.5514 96.2508 58.7947C95.8148 59.0279 95.318 59.1445 94.7604 59.1445ZM95.0341 57.5628C95.6526 57.5628 96.1494 57.355 96.5245 56.9393C96.9098 56.5236 97.1024 55.9913 97.1024 55.3424C97.1024 54.9064 97.0163 54.5212 96.8439 54.1866C96.6715 53.852 96.4282 53.5935 96.1139 53.411C95.8097 53.2183 95.4498 53.122 95.0341 53.122C94.6285 53.122 94.2686 53.2183 93.9543 53.411C93.6501 53.5935 93.4068 53.852 93.2243 54.1866C93.0519 54.5212 92.9658 54.9064 92.9658 55.3424C92.9658 55.7784 93.0519 56.1637 93.2243 56.4983C93.4068 56.8328 93.6501 57.0965 93.9543 57.2891C94.2686 57.4716 94.6285 57.5628 95.0341 57.5628ZM96.996 58.9924V57.0305L97.2849 55.2512L96.996 53.487V51.6924H98.6689V58.9924H96.996ZM102.913 59.1445C102.508 59.1445 102.117 59.0938 101.742 58.9924C101.367 58.8809 101.022 58.7288 100.708 58.5362C100.394 58.3334 100.12 58.0901 99.8868 57.8062L100.951 56.7416C101.205 57.0356 101.494 57.2587 101.818 57.4108C102.153 57.5527 102.528 57.6237 102.944 57.6237C103.319 57.6237 103.603 57.5679 103.795 57.4564C103.988 57.3449 104.084 57.1826 104.084 56.9697C104.084 56.7467 103.993 56.5743 103.811 56.4526C103.628 56.331 103.39 56.2296 103.096 56.1485C102.812 56.0572 102.508 55.966 102.183 55.8747C101.869 55.7835 101.565 55.6618 101.271 55.5097C100.987 55.3475 100.754 55.1295 100.571 54.8557C100.389 54.582 100.297 54.2271 100.297 53.7912C100.297 53.3248 100.404 52.9243 100.617 52.5897C100.84 52.2551 101.149 51.9966 101.544 51.8141C101.95 51.6316 102.432 51.5403 102.989 51.5403C103.577 51.5403 104.094 51.6468 104.541 51.8597C104.997 52.0625 105.377 52.3717 105.681 52.7874L104.617 53.852C104.404 53.5884 104.16 53.3907 103.887 53.2589C103.613 53.1271 103.299 53.0612 102.944 53.0612C102.609 53.0612 102.351 53.1119 102.168 53.2132C101.986 53.3146 101.894 53.4616 101.894 53.6543C101.894 53.8571 101.986 54.0142 102.168 54.1257C102.351 54.2373 102.584 54.3336 102.868 54.4147C103.162 54.4958 103.466 54.5871 103.78 54.6885C104.105 54.7797 104.409 54.9115 104.693 55.0839C104.987 55.2461 105.225 55.4692 105.407 55.753C105.59 56.0268 105.681 56.3867 105.681 56.8328C105.681 57.5426 105.433 58.1053 104.936 58.521C104.439 58.9367 103.765 59.1445 102.913 59.1445ZM110.452 59.1445C109.722 59.1445 109.063 58.9823 108.475 58.6578C107.897 58.3233 107.436 57.867 107.091 57.2891C106.756 56.7112 106.589 56.0623 106.589 55.3424C106.589 54.6226 106.756 53.9787 107.091 53.411C107.425 52.833 107.877 52.3768 108.444 52.0422C109.022 51.7076 109.661 51.5403 110.361 51.5403C111.04 51.5403 111.638 51.6975 112.155 52.0118C112.682 52.3261 113.093 52.757 113.387 53.3045C113.691 53.852 113.843 54.4755 113.843 55.1751C113.843 55.2968 113.833 55.4235 113.813 55.5553C113.803 55.677 113.782 55.8139 113.752 55.966H107.76V54.5972H112.885L112.262 55.1447C112.241 54.6986 112.155 54.3235 112.003 54.0193C111.851 53.7151 111.633 53.4819 111.349 53.3197C111.075 53.1575 110.736 53.0764 110.33 53.0764C109.904 53.0764 109.534 53.1676 109.22 53.3501C108.906 53.5326 108.662 53.7912 108.49 54.1257C108.318 54.4502 108.231 54.8405 108.231 55.2968C108.231 55.753 108.323 56.1535 108.505 56.4983C108.688 56.843 108.946 57.1117 109.281 57.3043C109.615 57.4868 110.001 57.5781 110.437 57.5781C110.812 57.5781 111.157 57.5121 111.471 57.3803C111.795 57.2485 112.069 57.0559 112.292 56.8024L113.357 57.8822C113.002 58.2979 112.571 58.6122 112.064 58.8251C111.557 59.0381 111.02 59.1445 110.452 59.1445Z" fill="#161A30"/>
<path d="M58.3373 36.5743L67.3716 20.404H70.2541L61.0793 36.5743H58.3373ZM58.3373 38.1913V36.5743L59.4271 35.8712H76.652V38.1913H58.3373ZM70.5354 44.5891V28.454H73.0664V44.5891L70.5354 44.5891ZM78.7974 43.0072L87.7613 33.6566C88.7925 32.5551 89.5893 31.6294 90.1517 30.8795C90.7376 30.1296 91.136 29.45 91.3469 28.8407C91.5813 28.2079 91.6984 27.5517 91.6984 26.8721C91.6984 25.4894 91.2649 24.4114 90.3978 23.638C89.5307 22.8412 88.3824 22.4428 86.9528 22.4428C85.6404 22.4428 84.4921 22.7592 83.5078 23.392C82.5236 24.0013 81.6447 24.927 80.8714 26.169L79.0786 24.5872C80.016 23.1107 81.1409 21.9859 82.4533 21.2125C83.7656 20.4391 85.2889 20.0525 87.0231 20.0525C88.4761 20.0525 89.7416 20.3337 90.8196 20.8961C91.9211 21.4586 92.7648 22.2554 93.3506 23.2865C93.9599 24.3177 94.2646 25.5246 94.2646 26.9073C94.2646 27.8681 94.1357 28.7469 93.8779 29.5437C93.6201 30.3171 93.1631 31.1373 92.507 32.0044C91.8742 32.8481 90.972 33.8792 89.8002 35.0979L82.2072 42.9018L78.7974 43.0072ZM78.7974 44.5891V43.0072L80.9065 42.269L94.8622 42.269V44.5891H78.7974ZM99.0468 44.5891L114.584 20.404H117.115L101.613 44.5891H99.0468ZM112.721 44.9406C111.831 44.9406 111.01 44.7297 110.261 44.3079C109.511 43.8626 108.913 43.265 108.468 42.5151C108.022 41.7652 107.8 40.9332 107.8 40.0192C107.8 39.1053 108.022 38.285 108.468 37.5586C108.913 36.8321 109.499 36.2579 110.225 35.8361C110.975 35.3908 111.807 35.1682 112.721 35.1682C113.635 35.1682 114.455 35.3908 115.182 35.8361C115.932 36.2579 116.529 36.8321 116.975 37.5586C117.42 38.285 117.643 39.1053 117.643 40.0192C117.643 40.9332 117.42 41.7652 116.975 42.5151C116.553 43.265 115.967 43.8626 115.217 44.3079C114.467 44.7297 113.635 44.9406 112.721 44.9406ZM112.686 42.9369C113.53 42.9369 114.221 42.6674 114.76 42.1284C115.299 41.5894 115.569 40.8863 115.569 40.0192C115.569 39.1756 115.287 38.496 114.725 37.9804C114.162 37.4414 113.483 37.1719 112.686 37.1719C111.913 37.1719 111.256 37.4414 110.717 37.9804C110.178 38.496 109.909 39.1756 109.909 40.0192C109.909 40.8863 110.178 41.5894 110.717 42.1284C111.256 42.6674 111.913 42.9369 112.686 42.9369ZM103.441 29.8249C102.55 29.8249 101.73 29.614 100.98 29.1922C100.23 28.7469 99.6326 28.161 99.1874 27.4345C98.7421 26.6846 98.5195 25.8527 98.5195 24.9387C98.5195 24.0247 98.7421 23.2045 99.1874 22.478C99.6326 21.7281 100.219 21.1422 100.945 20.7204C101.695 20.2751 102.527 20.0525 103.441 20.0525C104.355 20.0525 105.175 20.2751 105.902 20.7204C106.651 21.1422 107.249 21.7281 107.694 22.478C108.14 23.2045 108.362 24.0247 108.362 24.9387C108.362 25.8527 108.14 26.6846 107.694 27.4345C107.273 28.161 106.687 28.7469 105.937 29.1922C105.187 29.614 104.355 29.8249 103.441 29.8249ZM103.406 27.8212C104.249 27.8212 104.929 27.5517 105.445 27.0127C105.984 26.4737 106.253 25.7706 106.253 24.9035C106.253 24.0599 105.972 23.3803 105.409 22.8647C104.87 22.3257 104.203 22.0562 103.406 22.0562C102.632 22.0562 101.976 22.3257 101.437 22.8647C100.898 23.3803 100.629 24.0599 100.629 24.9035C100.629 25.7706 100.898 26.4737 101.437 27.0127C101.976 27.5517 102.632 27.8212 103.406 27.8212Z" fill="#161A30"/>
<path d="M43.9848 138.018C43.3983 138.018 42.8619 137.852 42.3757 137.52C41.8895 137.181 41.4998 136.702 41.2065 136.085C40.921 135.467 40.7782 134.742 40.7782 133.908C40.7782 133.067 40.921 132.346 41.2065 131.744C41.4921 131.134 41.8741 130.663 42.3526 130.331C42.8388 129.992 43.3751 129.822 43.9617 129.822C44.5559 129.822 45.0923 129.988 45.5707 130.32C46.0569 130.652 46.4428 131.126 46.7284 131.744C47.0139 132.353 47.1567 133.079 47.1567 133.92C47.1567 134.753 47.0139 135.479 46.7284 136.096C46.4428 136.714 46.0608 137.188 45.5823 137.52C45.1038 137.852 44.5713 138.018 43.9848 138.018ZM43.9617 137.219C44.417 137.219 44.8183 137.092 45.1656 136.837C45.5206 136.575 45.7984 136.2 45.9991 135.714C46.1997 135.22 46.3 134.618 46.3 133.908C46.3 133.206 46.1997 132.612 45.9991 132.126C45.7984 131.632 45.5206 131.257 45.1656 131.003C44.8183 130.748 44.417 130.621 43.9617 130.621C43.514 130.621 43.1127 130.748 42.7577 131.003C42.4104 131.257 42.1365 131.628 41.9358 132.114C41.7352 132.6 41.6348 133.198 41.6348 133.908C41.6348 134.618 41.7352 135.22 41.9358 135.714C42.1365 136.2 42.4104 136.575 42.7577 136.837C43.1127 137.092 43.514 137.219 43.9617 137.219Z" fill="#161A30"/>
</svg>
